<svg xmlns="http://www.w3.org/2000/svg" width="906" height="225" viewBox="0 0 906 225" version="1.1"><path d="M 103.945 2.396 C 96.235 5.355, 91.755 8.304, 83.795 15.660 C 79.233 19.877, 73.250 25.404, 70.500 27.943 C 42.931 53.403, 10.079 85.382, 7.778 89 C 6.205 91.475, 4.018 96.452, 2.919 100.059 C 1.028 106.267, 0.937 109.025, 1.211 151.559 L 1.500 196.500 4.430 202.382 C 7.945 209.440, 15.388 217.153, 21.812 220.395 C 29.821 224.437, 35.936 225.210, 57 224.841 C 75.170 224.523, 76.831 224.337, 81.358 222.108 C 87.531 219.070, 91.991 214.608, 95.066 208.395 C 97.422 203.635, 97.503 202.688, 97.995 174.117 L 98.500 144.735 105.500 138.316 C 116.930 127.836, 116.222 127.912, 125.877 136.134 C 130.401 139.986, 134.529 144.262, 135.051 145.634 C 135.573 147.007, 136 159.559, 136 173.528 C 136 197.012, 136.161 199.355, 138.135 204.631 C 140.959 212.180, 146.526 218.046, 154.253 221.615 C 160.496 224.498, 160.513 224.500, 181 224.500 C 204.204 224.500, 206.751 224.018, 215.941 217.880 C 223.104 213.097, 228.029 207.051, 231.195 199.153 C 233.389 193.680, 233.472 192.272, 233.797 155 C 234.187 110.394, 233.570 103.408, 228.323 92.918 C 225.140 86.556, 222.652 83.981, 195.320 58.769 C 130.170 -1.330, 134.354 1.760, 117.500 1.302 C 110.851 1.122, 106.309 1.488, 103.945 2.396 M 104.945 3.386 C 94.570 7.396, 89.797 11.392, 46.500 52.316 C 7.740 88.951, 7.318 89.440, 3.612 101.932 C 2.258 106.493, 2.006 113.061, 2.036 142.932 C 2.090 196.867, 2.989 202.232, 13.720 212.662 C 23.090 221.768, 31.034 224.005, 53.960 223.988 C 79.552 223.970, 86.542 221.208, 93 208.563 L 96.500 201.709 97 172.729 L 97.500 143.749 105 136.903 C 115.937 126.920, 116.158 126.893, 125.641 134.411 C 129.963 137.839, 134.175 141.466, 135 142.472 C 136.225 143.967, 136.593 149.450, 137.009 172.401 C 137.475 198.146, 137.692 200.877, 139.600 205 C 144.103 214.727, 151.149 220.288, 161.844 222.555 C 171.136 224.524, 194.455 224.450, 202.356 222.426 C 214.107 219.415, 222.982 212.478, 228.079 202.318 L 231.500 195.500 231.799 151.592 C 232.083 110.003, 231.993 107.335, 230.091 101.092 C 228.987 97.466, 226.794 92.472, 225.217 89.992 C 223.641 87.513, 214.743 78.513, 205.443 69.992 C 196.143 61.472, 184.698 50.900, 180.009 46.500 C 175.320 42.100, 168.979 36.250, 165.917 33.500 C 162.855 30.750, 156.180 24.692, 151.082 20.038 C 133.912 4.362, 131.011 2.811, 118 2.349 C 111.598 2.122, 107.341 2.461, 104.945 3.386 M 109.973 26.668 C 107.529 28.317, 102.128 33.162, 88.496 45.936 C 84.643 49.546, 78.793 54.951, 75.496 57.947 C 72.198 60.942, 60.639 71.882, 49.810 82.256 C 34.043 97.361, 29.778 102.014, 28.406 105.606 C 26.899 109.553, 26.681 114.871, 26.596 149.796 L 26.500 189.500 29.334 193.676 C 31.644 197.080, 32.928 197.981, 36.279 198.547 C 41.596 199.445, 65.005 199.450, 67.830 198.554 C 72.080 197.205, 72.473 194.823, 73.037 167 C 73.500 144.202, 73.834 139.894, 75.430 136.165 C 76.774 133.025, 80.811 128.591, 90.088 120.069 C 104.850 106.509, 109.534 104.202, 119.853 105.410 C 128.462 106.417, 132.459 108.956, 145.556 121.736 C 155.317 131.260, 157.879 134.357, 159.009 138 C 160.018 141.250, 160.468 149.494, 160.631 167.681 C 160.870 194.352, 161.201 196.365, 165.624 198.047 C 168.631 199.190, 193.454 199.370, 197.017 198.274 C 200.314 197.260, 203.198 195.085, 205.300 192.027 C 206.831 189.801, 207 185.545, 207 149.238 C 207 110.339, 206.927 108.776, 204.914 104.831 C 202.678 100.449, 199.972 97.655, 178.435 77.500 C 170.796 70.350, 157.110 57.507, 148.022 48.960 C 138.935 40.414, 130.375 32.372, 129 31.090 C 122.419 24.954, 115.051 23.242, 109.973 26.668 M 111.342 27.285 C 108.552 28.856, 64.945 69.342, 45.301 88.600 C 32.913 100.745, 29.910 104.240, 29.057 107.500 C 28.416 109.953, 28.009 126.629, 28.006 150.615 C 28 188.772, 28.051 189.795, 30.088 192.385 C 33.951 197.296, 36.702 198, 52.016 198 C 59.780 198, 66.955 197.559, 67.961 197.021 C 71.387 195.187, 72 190.463, 72 165.888 C 72 134.142, 71.625 135.167, 89.130 119.068 C 99.307 109.710, 103.212 106.758, 107.145 105.452 C 113.426 103.365, 123.944 103.844, 129.354 106.461 C 135.683 109.524, 155.695 128.496, 158.795 134.371 L 161.500 139.500 162 166.840 C 162.619 200.712, 160.952 198, 181.160 198 C 196.154 198, 198.401 197.436, 203 192.515 L 205.500 189.841 205.784 150.249 L 206.067 110.658 203.575 105.563 C 201.661 101.652, 196.962 96.640, 183.345 83.984 C 173.589 74.918, 156.649 59.028, 145.701 48.673 C 134.753 38.318, 124.379 28.983, 122.648 27.927 C 119.081 25.752, 114.526 25.493, 111.342 27.285 M 364.150 78.250 L 364.299 88.500 365.231 80 C 365.744 75.325, 366.344 70.919, 366.566 70.209 C 366.862 69.260, 369.153 68.995, 375.234 69.209 L 383.500 69.500 383.792 78.467 C 383.975 84.091, 384.534 87.720, 385.292 88.202 C 385.956 88.624, 390.887 88.976, 396.250 88.985 L 406 89 406 94.966 L 406 100.932 395.250 101.216 L 384.500 101.500 384.230 123.307 L 383.961 145.115 386.985 148.139 C 389.876 151.030, 390.309 151.144, 396.755 150.708 C 400.465 150.458, 404.352 150.084, 405.393 149.877 C 406.942 149.568, 407.679 150.696, 409.443 156.075 C 411.132 161.226, 411.335 162.898, 410.378 163.791 C 406.129 167.761, 384.706 168.035, 377.345 164.213 C 375.059 163.027, 372.206 160.806, 371.004 159.278 C 366.348 153.360, 366 151.086, 366 126.578 C 366 109.884, 365.664 103.064, 364.800 102.200 C 364.140 101.540, 360.990 101, 357.800 101 L 352 101 352 95 L 352 89 357.750 88.985 C 361.891 88.974, 363.080 88.692, 362 87.980 C 361.175 87.435, 358.363 87.105, 355.750 87.245 L 351 87.500 351 94.750 L 351 102 357.409 102 L 363.818 102 364.159 126.250 C 364.490 149.795, 364.573 150.644, 367 155.449 C 370.283 161.947, 375.034 165.551, 383 167.586 C 392.201 169.936, 406.216 168.488, 411.473 164.643 C 413.298 163.309, 413.271 163.033, 410.569 155.384 C 409.038 151.048, 407.619 147.323, 407.416 147.107 C 407.214 146.892, 406.394 147.258, 405.593 147.923 C 403.526 149.638, 394.021 150.390, 390.702 149.100 C 385.797 147.194, 385 143.342, 385 121.532 L 385 102 396.544 102 L 408.088 102 407.794 94.750 L 407.500 87.500 396.500 87.481 L 385.500 87.462 385.214 77.731 L 384.928 68 374.464 68 L 364 68 364.150 78.250 M 298.407 86.964 C 285.043 89.830, 276.029 99.149, 276.006 110.124 C 275.998 113.631, 278.637 120.935, 280.776 123.330 C 285.277 128.368, 291.332 130.866, 311.379 135.954 C 317.912 137.612, 323.875 139.481, 324.629 140.107 C 326.092 141.321, 326.451 145.771, 325.235 147.610 C 323.613 150.062, 317.895 152, 312.300 151.994 C 304.091 151.987, 299.918 150.561, 294.724 145.988 C 292.232 143.795, 289.688 142, 289.072 142 C 288.455 142, 284.804 143.584, 280.960 145.520 L 273.970 149.040 275.402 151.770 C 277.775 156.291, 284.141 161.733, 290.500 164.679 C 296.209 167.323, 297.227 167.459, 311.500 167.479 C 325.065 167.498, 326.978 167.280, 331.500 165.199 C 341.223 160.724, 346.936 152.795, 346.978 143.718 C 347.040 130.291, 338.969 123.680, 316.069 118.402 C 303.511 115.508, 299.556 113.927, 298.148 111.240 C 296.715 108.504, 298.621 105.056, 302.452 103.456 C 309.553 100.489, 319.049 102.294, 324.782 107.701 C 326.706 109.515, 329.004 111.001, 329.890 111.003 C 330.775 111.004, 334.313 109.812, 337.750 108.353 C 342.009 106.545, 344 105.145, 344 103.958 C 344 100.658, 335.430 92.466, 328.921 89.545 C 323.763 87.230, 321.066 86.715, 312.620 86.429 C 307.054 86.241, 300.658 86.482, 298.407 86.964 M 442.251 87.545 C 436.544 89.082, 430.704 91.904, 427.411 94.716 C 424.651 97.073, 421 102.459, 421 104.174 C 421 105.584, 431.726 112, 434.085 112 C 434.817 112, 437.010 110.485, 438.958 108.633 C 444.583 103.285, 451.853 101.721, 460.248 104.052 C 466.058 105.666, 469.009 108.823, 470.508 115.029 C 471.373 118.609, 471.859 119.556, 471.915 117.770 C 472.056 113.254, 469.056 107.196, 465.649 105.116 C 456.373 99.452, 446.946 100.122, 438.576 107.039 L 433.754 111.023 428.627 108.069 C 425.807 106.444, 423.372 104.504, 423.215 103.757 C 422.271 99.256, 434.705 89.884, 443.380 88.558 C 445.646 88.212, 448.866 87.708, 450.536 87.438 C 455.468 86.641, 466.557 88.652, 472.743 91.465 C 479.342 94.465, 484.392 99.462, 487.406 105.976 C 489.371 110.221, 489.500 112.197, 489.500 138 L 489.500 165.500 482.401 165.791 L 475.302 166.082 473.709 162.291 C 472.293 158.921, 472.174 158.833, 472.641 161.500 C 473.625 167.115, 473.412 167, 482.822 167 L 491.706 167 491.277 140.250 C 490.797 110.362, 490.103 106.041, 484.625 98.867 C 476.661 88.437, 457.726 83.378, 442.251 87.545 M 607.384 87.348 C 589.095 92.015, 578.094 108.884, 579.226 130.528 C 580.172 148.617, 589.499 160.687, 607.032 166.511 C 610.970 167.819, 614.729 168.128, 623.326 167.851 C 633.146 167.535, 635.199 167.149, 640.268 164.664 C 645.800 161.951, 656 153.190, 656 151.151 C 656 150.613, 653.062 148.529, 649.472 146.521 L 642.944 142.871 638.222 146.287 C 635.625 148.166, 631.970 150.220, 630.101 150.852 C 625.025 152.566, 616.086 152.222, 611.491 150.135 C 606.346 147.797, 601.282 142.019, 600.438 137.521 C 600.075 135.585, 599.399 134, 598.937 134 C 598.474 134, 598.739 136.136, 599.524 138.747 C 601.199 144.312, 606.757 150.105, 612.120 151.875 C 621.136 154.850, 632.391 152.985, 638.726 147.466 L 642.500 144.178 648.250 147.320 C 651.413 149.048, 654 150.875, 654 151.381 C 654 152.768, 645.086 160.904, 641.578 162.719 C 633.309 166.998, 617.890 168.310, 608.690 165.519 C 596.440 161.802, 586.970 153.679, 582.962 143.449 C 581.086 138.663, 580.623 135.544, 580.593 127.500 C 580.549 115.723, 582.676 109.120, 589.154 100.924 C 598.658 88.901, 614.614 84.548, 631.349 89.413 C 642.279 92.590, 652.716 104.095, 654.913 115.387 C 657.492 128.643, 657.755 129.635, 657.863 126.500 C 658.042 121.271, 655.192 110.123, 652.333 104.871 C 648.675 98.150, 641.225 91.608, 634.202 88.949 C 627.150 86.280, 614.522 85.526, 607.384 87.348 M 692.384 87.344 C 689.569 88.064, 685.220 89.853, 682.717 91.320 C 678.046 94.058, 671 101.419, 671 103.563 C 671 104.761, 682.258 112, 684.121 112 C 684.659 112, 686.718 110.428, 688.696 108.506 C 696.959 100.482, 711.919 101.199, 717.730 109.898 C 718.979 111.767, 720 114.354, 720 115.648 C 720 116.942, 720.428 118, 720.952 118 C 722.329 118, 719.482 109.197, 717.319 106.767 C 710.982 99.649, 696.540 99.825, 688.215 107.121 C 686.409 108.705, 684.481 110, 683.932 110 C 682.303 110, 672.056 104.570, 672.027 103.691 C 672.012 103.246, 673.913 100.837, 676.250 98.338 C 684.443 89.576, 696.710 85.821, 710.461 87.866 C 724.569 89.965, 731.518 94.556, 736.366 104.979 L 739.399 111.500 739.802 138.589 L 740.206 165.678 733.561 165.893 C 725.315 166.160, 723 165.475, 723 162.766 C 723 161.611, 722.721 160.946, 722.380 161.287 C 722.039 161.628, 722.052 163.070, 722.408 164.491 C 723.053 167.059, 723.109 167.073, 732.127 166.787 L 741.198 166.500 741.054 140.789 C 740.895 112.205, 740.114 106.932, 734.921 99.385 C 731.478 94.380, 726.646 90.846, 720 88.468 C 713.935 86.298, 698.868 85.685, 692.384 87.344 M 771.137 87.015 C 749.374 91.600, 742.443 116.457, 759.875 127.410 C 764.290 130.185, 772.457 132.998, 784.761 135.983 C 795.347 138.551, 799 140.843, 799 144.918 C 799 149.555, 795.995 151.273, 786.971 151.796 C 777.337 152.353, 772.024 150.667, 766.496 145.299 L 762.767 141.677 755.364 145.340 L 747.961 149.003 749.943 152.888 C 752.266 157.441, 757.769 162.057, 764.617 165.194 C 768.968 167.189, 771.133 167.436, 784.500 167.466 C 798.087 167.497, 799.971 167.283, 804.500 165.196 C 810.148 162.594, 814.147 159.105, 817.276 154.049 C 820.546 148.764, 820.282 138.863, 816.707 132.763 C 812.976 126.397, 806.547 123.045, 789.521 118.588 C 772.817 114.217, 770.763 113.107, 771.191 108.688 C 771.432 106.204, 772.273 105.100, 775 103.687 C 781.519 100.311, 794.733 103.318, 798.782 109.099 C 800.495 111.545, 802.503 111.494, 809.117 108.837 C 817.394 105.512, 817.823 104.842, 814.705 100.130 C 808.843 91.273, 799.383 86.906, 785 86.418 C 779.775 86.241, 773.537 86.510, 771.137 87.015 M 856.624 87.047 C 842.648 90.559, 832.564 100.371, 828.474 114.442 C 825.814 123.591, 826.763 138.584, 830.499 146.438 C 834.183 154.184, 840.020 159.900, 848.517 164.083 C 854.706 167.130, 856.407 167.502, 865.744 167.847 C 876.859 168.259, 882.366 167.255, 890 163.427 C 895.039 160.899, 903 153.645, 903 151.580 C 903 150.359, 891.922 143, 890.083 143 C 889.658 143, 888.453 143.964, 887.405 145.142 C 884.148 148.803, 876.068 151.980, 870 151.985 C 857.652 151.994, 849.318 146.400, 846.929 136.500 C 846.341 134.064, 846.185 133.930, 846.102 135.790 C 845.949 139.212, 849.550 145.555, 853.245 148.373 C 858.203 152.155, 861.830 153.206, 869.500 153.083 C 876.891 152.964, 884.851 150.032, 888.387 146.125 C 890.048 144.289, 890.227 144.316, 895.527 147.186 C 898.516 148.805, 901.204 150.521, 901.500 151 C 902.313 152.315, 893.155 160.903, 889.080 162.647 C 881.417 165.926, 876.158 166.978, 867.500 166.962 C 859.814 166.948, 857.504 166.521, 851.682 164.037 C 847.932 162.438, 842.917 159.534, 840.539 157.585 C 824.007 144.039, 823.799 112.751, 840.140 97.465 C 849.236 88.957, 862.908 85.543, 875.857 88.547 C 891.127 92.088, 901.835 104.188, 903.692 120 C 904.300 125.178, 904.272 124.610, 904.119 128.500 L 904.001 131.500 877.243 131.291 C 861.791 131.170, 849.855 131.481, 848.993 132.026 C 848.036 132.630, 857.784 132.975, 876.122 132.985 L 904.744 133 905.352 129.199 C 905.966 125.357, 904.976 117.568, 903.015 110.823 C 900.419 101.891, 890.475 91.777, 881 88.432 C 875.508 86.494, 861.905 85.721, 856.624 87.047 M 301 88.138 C 292.188 89.586, 287.214 91.950, 283.065 96.664 C 274.843 106.005, 275.763 118.196, 285.229 125.332 C 289.124 128.269, 299.857 131.996, 313.200 135.047 C 324.450 137.619, 327.339 139.753, 326.822 145.109 C 326.206 151.482, 315.901 155.331, 305.621 153.027 C 299.416 151.637, 297.321 150.543, 293 146.441 L 289.500 143.118 283.082 145.809 C 279.552 147.289, 276.499 148.997, 276.298 149.603 C 276.096 150.210, 277.963 152.967, 280.447 155.730 C 289.015 165.260, 305.710 169.204, 323.535 165.909 C 333.157 164.130, 340.107 159.562, 343.668 152.675 C 345.686 148.774, 345.654 138.164, 343.612 134.217 C 340.287 127.788, 330.102 122.546, 315 119.493 C 310.325 118.548, 304.819 116.920, 302.765 115.875 C 291.383 110.084, 296.048 101, 310.403 101 C 317.173 101, 320.232 102.129, 325.785 106.680 L 330.134 110.243 336.567 107.509 C 340.105 106.005, 343 104.424, 343 103.996 C 343 103.567, 340.988 100.979, 338.529 98.244 C 333.295 92.421, 327.111 89.441, 317.332 88.027 C 309.514 86.897, 308.508 86.904, 301 88.138 M 776.500 87.564 C 775.400 87.815, 772.171 88.490, 769.324 89.065 C 756.442 91.667, 748.120 105.170, 752.435 116.468 C 755.460 124.390, 763.306 129.403, 778.317 133.007 C 795.652 137.169, 800 139.479, 800 144.529 C 800 148.137, 798.974 149.963, 796.129 151.420 C 787.926 155.619, 773.281 153.630, 766.958 147.457 C 765.010 145.556, 762.927 144, 762.329 144 C 760.940 144, 750 148.989, 750 149.623 C 750 151.458, 753.559 156.260, 756.720 158.692 C 764.714 164.840, 775.128 167.459, 788.868 166.779 C 800.903 166.183, 807.409 163.615, 813.014 157.247 C 817.346 152.325, 818.487 148.421, 817.771 140.968 C 816.703 129.852, 810.620 125.463, 788 119.490 C 777.230 116.646, 773.917 115.346, 771.617 113.060 C 763.960 105.452, 776.328 98.186, 790.321 102.072 C 792.422 102.656, 795.906 104.727, 798.063 106.676 L 801.984 110.218 808.242 107.688 C 813.598 105.523, 814.465 104.823, 814.259 102.829 C 813.908 99.444, 805.802 92.444, 799.503 90.087 C 794.254 88.123, 780.612 86.627, 776.500 87.564 M 494 88.968 C 494 89.845, 512.399 133.551, 523.622 159.335 L 527.032 167.170 524.455 171.906 C 521.219 177.850, 517.672 180, 511.096 180 L 506 180 506.015 188.250 C 506.024 192.787, 506.429 197.129, 506.915 197.897 C 507.606 198.988, 509.679 199.177, 516.370 198.760 C 526.277 198.142, 531.805 195.567, 536.533 189.367 C 539.778 185.114, 539.838 184.972, 570.863 109 C 575.242 98.275, 578.488 89.145, 578.075 88.712 C 577.662 88.278, 572.911 88.053, 567.518 88.212 C 560.039 88.432, 557.523 88.856, 556.913 90 C 553.724 95.983, 537.985 138.301, 538.039 140.745 C 538.060 141.710, 540.009 137.325, 542.371 131 C 551.583 106.324, 557.370 91.462, 558.091 90.628 C 558.908 89.682, 577 88.673, 577 89.573 C 577 89.874, 574.926 95.156, 572.392 101.310 C 569.858 107.465, 565.345 118.575, 562.363 126 C 559.381 133.425, 556.525 140.400, 556.016 141.500 C 554.838 144.043, 551.331 152.613, 544.499 169.638 C 535.786 191.350, 530.834 196.258, 516.275 197.611 C 509.098 198.278, 509.052 198.267, 508.029 195.576 C 507.463 194.088, 507 190.424, 507 187.435 L 507 182 511.114 182 C 517.031 182, 522.322 178.663, 525.415 172.978 C 526.837 170.366, 528 167.731, 528 167.123 C 528 165.775, 510.991 125.446, 500.504 101.928 C 498.647 97.764, 496.846 93.234, 496.501 91.861 L 495.875 89.365 505.548 89.593 C 510.868 89.718, 515.548 90.198, 515.948 90.660 C 516.349 91.122, 517.703 94.425, 518.958 98 C 520.213 101.575, 524.055 111.700, 527.496 120.500 C 530.937 129.300, 534.262 137.850, 534.886 139.500 L 536.020 142.500 535.493 139 C 535.203 137.075, 533.185 131, 531.008 125.500 C 528.831 120, 524.676 109.425, 521.775 102 L 516.500 88.500 505.250 88.217 C 497.988 88.035, 494 88.301, 494 88.968 M 612.277 102.373 C 604.959 105.122, 598.441 113.067, 599.191 118.327 C 599.496 120.474, 599.742 120.500, 619.500 120.533 L 639.500 120.567 619.750 120.262 C 603.938 120.018, 600 119.687, 600 118.601 C 600 115.941, 602.881 110.457, 605.668 107.814 C 609.368 104.304, 613.005 103, 619.097 103 C 627.643 103, 632.386 106.061, 636.916 114.500 C 638.237 116.959, 638.815 117.537, 638.418 116 C 636.862 109.979, 630.894 103.442, 626.111 102.521 C 620.068 101.358, 615.122 101.305, 612.277 102.373 M 859.594 102.041 C 857.995 102.519, 855.143 104.393, 853.256 106.205 C 849.780 109.543, 845.442 116.775, 846.363 117.696 C 846.639 117.973, 848.008 115.944, 849.405 113.187 C 852.868 106.353, 856.621 103.880, 864.488 103.249 C 872.526 102.604, 875.104 103.275, 879.533 107.163 C 883.060 110.260, 885.090 113.371, 886.441 117.750 L 887.135 120 867.317 120.227 L 847.500 120.454 866.928 120.749 C 877.613 120.912, 886.717 120.683, 887.158 120.242 C 888.938 118.462, 885.725 111.427, 881.068 106.909 C 875.152 101.169, 867.960 99.539, 859.594 102.041 M 438.410 120.134 C 432.359 121.496, 423.975 126.933, 420.683 131.631 C 417.237 136.549, 415.966 146.337, 417.981 152.441 C 419.578 157.283, 424.260 162.556, 429.405 165.309 C 432.966 167.214, 435.064 167.500, 445.500 167.500 C 456.528 167.500, 457.945 167.281, 463 164.790 C 466.025 163.300, 469.036 161.210, 469.692 160.147 C 470.551 158.753, 469.506 159.140, 465.951 161.533 C 459.675 165.756, 452.332 167.396, 442.359 166.800 C 433.085 166.247, 427.681 163.859, 423.072 158.279 C 419.142 153.521, 417.638 148.050, 418.458 141.490 C 419.256 135.106, 421.752 130.917, 427.039 127.087 C 434.393 121.759, 439.876 120.500, 455.713 120.500 C 463.530 120.500, 469.155 120.194, 468.213 119.820 C 465.702 118.824, 443.180 119.061, 438.410 120.134 M 688.746 120.086 C 671.602 124.126, 661.725 139.830, 667.553 153.782 C 671.437 163.080, 678.680 167.214, 692.113 167.801 C 704.101 168.325, 710.948 166.554, 716.548 161.481 L 720.500 157.900 715.427 161.251 C 708.619 165.748, 700.858 167.391, 690.502 166.529 C 679.334 165.598, 673.282 162.214, 669.611 154.847 C 663.506 142.596, 669.041 129.930, 683.374 123.349 C 689.168 120.689, 690.270 120.535, 703.701 120.518 C 711.511 120.508, 717.136 120.194, 716.201 119.820 C 713.751 118.841, 693.183 119.040, 688.746 120.086 M 655.999 130.691 C 655.998 131.136, 643.678 131.475, 628.622 131.444 C 613.565 131.413, 600.403 131.719, 599.373 132.123 C 598.343 132.528, 610.861 132.891, 627.191 132.930 C 654.337 132.994, 660.258 132.514, 657.016 130.510 C 656.457 130.165, 655.999 130.246, 655.999 130.691 M 703.500 131.142 C 689.442 132.645, 683.155 138.410, 686.164 147.040 C 687.645 151.288, 692.191 153.430, 699.638 153.390 C 712.052 153.324, 720.178 147.610, 721.497 138.021 C 721.887 135.189, 721.911 132.578, 721.551 132.218 C 720.435 131.102, 709.799 130.468, 703.500 131.142 M 445.626 132.872 C 440.031 134.842, 437.338 137.681, 436.420 142.576 C 434.746 151.497, 445.527 156.398, 458.299 152.522 C 467.513 149.727, 472.114 144.567, 471.875 137.300 L 471.750 133.500 471.055 137.770 C 470.673 140.119, 469.468 143.269, 468.378 144.770 C 463.322 151.733, 447.530 155.018, 441.324 150.398 C 435.108 145.770, 436.223 139.374, 444.006 135.016 C 448.059 132.747, 449.594 132.500, 459.655 132.500 C 465.789 132.500, 470.289 132.169, 469.655 131.765 C 467.399 130.330, 450.654 131.101, 445.626 132.872 M 695.951 133.541 C 689.939 135.394, 686.800 138.804, 686.800 143.482 C 686.800 148.247, 689.116 150.645, 694.921 151.890 C 702.405 153.495, 712.036 150.819, 716.690 145.841 C 718.926 143.450, 721.504 134.624, 720.460 132.935 C 719.574 131.502, 701.084 131.959, 695.951 133.541" stroke="none" fill="#fb1327" fill-rule="evenodd"/><path d="M 113.768 0.725 C 115.565 0.947, 118.265 0.943, 119.768 0.715 C 121.271 0.486, 119.800 0.304, 116.500 0.310 C 113.200 0.315, 111.971 0.502, 113.768 0.725 M 102.665 4.401 C 95.299 7.487, 90.797 10.607, 84.535 16.965 C 78.239 23.356, 76.078 23.604, 82.042 17.250 L 86.500 12.500 81.793 16.916 C 79.205 19.344, 77.271 21.630, 77.497 21.995 C 78.181 23.102, 67.432 33.132, 65.913 32.804 C 65.136 32.637, 64.600 33.025, 64.722 33.667 C 64.954 34.881, 30.897 68, 29.417 68 C 28.954 68, 30.808 65.638, 33.538 62.750 L 38.500 57.500 33.273 62.440 C 30.398 65.157, 28.273 67.607, 28.551 67.884 C 29.201 68.534, 16.875 81, 15.583 81 C 15.046 81, 16.154 79.313, 18.045 77.250 C 19.935 75.188, 18.898 75.960, 15.741 78.966 C 12.583 81.972, 10 84.638, 10 84.890 C 10 85.142, 11.125 84.292, 12.500 83 C 13.875 81.708, 15 81.096, 15 81.639 C 15 82.832, 9.465 88.269, 8.510 88.014 C 8.138 87.915, 7.533 88.168, 7.167 88.577 C 6.800 88.986, 7.139 88.950, 7.920 88.496 C 8.933 87.908, 9.164 88.077, 8.726 89.086 C 8.389 89.864, 6.850 93.425, 5.307 97 L 2.500 103.500 2.202 139.495 C 1.841 183.124, 2.666 195.435, 6.456 202.914 C 9.535 208.988, 16.548 216.218, 22.119 219.061 C 29.692 222.924, 36.647 224.001, 53.960 223.988 C 66.058 223.979, 71.977 223.550, 76 222.389 C 79.025 221.516, 82.255 220.750, 83.179 220.687 C 84.102 220.623, 84.777 220.162, 84.679 219.661 C 84.580 219.160, 85.125 218.523, 85.889 218.245 C 86.845 217.898, 87.029 218.171, 86.479 219.120 C 86.007 219.935, 86.052 220.159, 86.590 219.667 C 87.090 219.208, 87.501 218.533, 87.502 218.167 C 87.502 217.800, 88.531 216.057, 89.788 214.294 C 91.045 212.531, 93.069 208.931, 94.287 206.294 C 96.365 201.792, 96.530 199.738, 97 172.625 L 97.500 143.749 105 136.903 C 114.482 128.248, 116.727 127.352, 120.610 130.673 C 122.200 132.032, 122.825 132.801, 122 132.380 C 120.709 131.722, 120.691 131.851, 121.872 133.308 C 123.358 135.140, 124.506 135.628, 123.500 134 C 123.160 133.450, 123.289 133, 123.786 133 C 124.989 133, 128.141 136.526, 127.506 137.161 C 127.232 137.435, 128.244 138.748, 129.754 140.079 L 132.500 142.500 130.076 139.750 C 126.522 135.718, 129.018 136.392, 133.054 140.553 L 136.500 144.106 137.009 172.303 C 137.476 198.202, 137.688 200.871, 139.614 205.051 C 142.164 210.584, 147.283 216.578, 151.181 218.594 C 152.846 219.454, 153.775 220.555, 153.378 221.197 C 152.994 221.818, 153.141 222.031, 153.711 221.679 C 154.272 221.332, 157.829 221.705, 161.616 222.507 C 171.161 224.529, 194.362 224.479, 202.311 222.419 C 209.881 220.458, 212.260 219.238, 219.084 213.821 C 222.063 211.457, 224.800 209.517, 225.167 209.511 C 225.533 209.505, 226.208 209.090, 226.667 208.590 C 227.151 208.061, 226.976 207.981, 226.250 208.399 C 224.507 209.402, 224.594 209.121, 228.250 201.910 L 231.500 195.500 231.799 151.675 C 232.060 113.411, 231.890 107.133, 230.457 102.205 C 227.986 93.705, 225.322 89.162, 218.863 82.436 C 215.639 79.079, 213.222 76.112, 213.490 75.843 C 213.759 75.574, 212.523 74.037, 210.743 72.427 C 207.609 69.592, 207.584 69.587, 209.928 72.250 C 211.259 73.763, 211.916 75, 211.387 75 C 210.087 75, 200.815 65.519, 201.472 64.862 C 201.758 64.575, 200.770 63.252, 199.276 61.921 C 197.783 60.589, 197.165 60.288, 197.903 61.250 C 198.641 62.212, 198.833 63, 198.331 63 C 197.091 63, 188.826 54.507, 189.454 53.879 C 189.729 53.604, 187.602 51.157, 184.727 48.440 L 179.500 43.500 184.462 48.750 C 187.192 51.638, 188.980 54, 188.437 54 C 187.894 54, 184.086 50.524, 179.975 46.276 C 175.864 42.028, 173.850 39.660, 175.500 41.013 C 177.671 42.793, 177.408 42.302, 174.547 39.236 C 170.532 34.934, 168.107 33.217, 171.595 37.146 C 174.903 40.873, 171.443 38.701, 165.788 33.500 C 140.986 10.693, 135.102 5.802, 130.839 4.449 C 129.811 4.123, 129.158 3.551, 129.387 3.178 C 129.616 2.805, 125.010 2.378, 119.152 2.228 C 109.746 1.989, 107.817 2.243, 102.665 4.401 M 110.729 26.092 C 109.755 26.659, 109.200 27.514, 109.495 27.992 C 109.791 28.471, 109.506 29.187, 108.862 29.585 C 108.131 30.037, 107.959 29.876, 108.405 29.155 C 108.797 28.520, 108.735 28, 108.267 28 C 107.065 28, 98.847 36.514, 99.459 37.126 C 99.736 37.403, 98.060 39.401, 95.733 41.565 L 91.503 45.500 94.947 41.750 C 96.842 39.688, 97.954 38, 97.417 38 C 96.109 38, 83.803 50.470, 84.461 51.128 C 84.746 51.413, 83.528 52.963, 81.755 54.573 C 79.442 56.673, 79.092 56.823, 80.516 55.104 C 81.607 53.786, 81.963 52.886, 81.306 53.104 C 79.526 53.694, 46.018 85.346, 46.008 86.446 C 46.004 86.967, 47.688 85.846, 49.750 83.955 C 51.813 82.065, 51.040 83.102, 48.034 86.259 C 45.028 89.417, 42.362 92, 42.110 92 C 41.858 92, 42.708 90.875, 44 89.500 C 45.292 88.125, 45.921 87, 45.399 87 C 43.473 87, 30.031 101.630, 28.443 105.454 C 27.046 108.822, 26.749 114.981, 26.443 146.954 C 26.090 183.899, 26.477 191.500, 28.708 191.500 C 29.327 191.500, 30.208 191.910, 30.667 192.410 C 31.151 192.939, 30.976 193.019, 30.250 192.601 C 28.572 191.636, 28.676 192.575, 30.565 195.458 C 31.606 197.048, 33.509 198.079, 36.260 198.544 C 41.592 199.445, 65 199.452, 67.830 198.554 C 72.086 197.203, 72.475 194.835, 73.006 167 C 73.589 136.481, 73.886 135.256, 82.836 126.582 C 85.627 123.877, 87.723 121.361, 87.494 120.990 C 87.265 120.620, 88.748 118.783, 90.789 116.908 L 94.500 113.500 91.054 117.250 C 85.660 123.119, 88.500 121.650, 96.036 114.673 C 105.916 105.525, 113.384 103.397, 125.016 106.414 C 128.015 107.192, 130.824 107.609, 131.259 107.340 C 131.694 107.071, 131.926 107.391, 131.775 108.051 C 131.624 108.710, 132.125 109.477, 132.889 109.755 C 133.845 110.102, 134.029 109.829, 133.479 108.880 C 133.007 108.065, 133.052 107.841, 133.590 108.333 C 134.090 108.792, 134.500 109.595, 134.500 110.118 C 134.500 111.123, 157.143 133.422, 158 133.261 C 158.275 133.209, 158.550 134.142, 158.612 135.333 C 158.674 136.525, 159.197 139.750, 159.775 142.500 C 160.352 145.250, 160.806 157.659, 160.784 170.076 C 160.741 194.049, 161.124 196.336, 165.467 197.987 C 167.603 198.799, 178.696 199.252, 191.500 199.049 C 195.146 198.991, 196.094 198.703, 195 197.986 C 193.903 197.267, 194.307 197.140, 196.500 197.513 C 199.701 198.058, 202.152 196.527, 205.281 192.027 C 206.838 189.788, 206.998 185.740, 206.984 149.027 C 206.967 108.934, 206.943 108.458, 204.734 104.597 C 203.505 102.450, 202.050 100.744, 201.500 100.806 C 199.779 100.998, 193.130 93.824, 193.686 92.375 C 193.977 91.619, 193.793 91, 193.279 91 C 192.765 91, 189.679 88.301, 186.422 85.002 C 179.978 78.475, 176.459 76.661, 182.053 82.750 L 185.497 86.500 181.290 82.587 C 178.976 80.436, 177.291 78.338, 177.546 77.925 C 177.801 77.513, 174.975 74.323, 171.267 70.838 C 167.558 67.352, 160.888 61.013, 156.444 56.750 C 147.547 48.217, 144 46.247, 151.042 53.750 L 155.500 58.500 150.771 54.062 C 148.170 51.622, 146.271 49.395, 146.551 49.115 C 147.207 48.459, 131.868 33, 130.561 33 C 130.019 33, 131.808 35.362, 134.537 38.250 L 139.499 43.500 133.750 38.034 C 128.242 32.799, 126.841 31.165, 129 32.500 C 129.550 32.840, 130 32.819, 130 32.453 C 130 31.689, 125.657 28.077, 122.583 26.285 C 120.035 24.800, 113.142 24.687, 110.729 26.092 M 369.750 67.737 C 372.637 67.939, 377.363 67.939, 380.250 67.737 C 383.137 67.535, 380.775 67.370, 375 67.370 C 369.225 67.370, 366.863 67.535, 369.750 67.737 M 366.704 69.711 C 366.450 70.145, 365.926 74.386, 365.540 79.135 C 364.876 87.318, 364.726 87.746, 362.670 87.299 C 360.912 86.916, 360.785 87.030, 362 87.898 C 363.137 88.710, 362.108 88.973, 357.750 88.985 L 352 89 352 95 L 352 101 357.800 101 C 360.990 101, 364.140 101.540, 364.800 102.200 C 365.664 103.064, 366 109.884, 366 126.578 C 366 151.086, 366.348 153.360, 371.004 159.278 C 375.377 164.836, 380.301 166.477, 392.500 166.441 C 406.568 166.399, 410.876 165.867, 410.261 164.250 C 410 163.563, 410.224 163, 410.759 163 C 411.294 163, 410.882 160.425, 409.844 157.278 C 408.806 154.131, 408.215 150.883, 408.531 150.059 C 408.847 149.235, 408.798 148.869, 408.421 149.245 C 408.045 149.622, 406.842 149.451, 405.748 148.865 C 404.541 148.219, 404.001 148.192, 404.374 148.795 C 405.294 150.285, 402.527 151, 395.841 151 C 390.539 151, 389.506 150.660, 386.903 148.057 L 383.961 145.115 384.230 123.307 L 384.500 101.500 395.250 101.216 L 406 100.932 406 94.966 L 406 89 396.250 88.985 C 390.887 88.976, 385.956 88.624, 385.292 88.202 C 384.534 87.720, 383.975 84.091, 383.792 78.467 L 383.500 69.500 375.333 69.211 C 370.841 69.052, 366.958 69.277, 366.704 69.711 M 385.435 77.919 C 385.487 85.406, 385.808 87.422, 387 87.745 C 388.066 88.035, 388.151 87.904, 387.292 87.293 C 386.553 86.768, 385.946 82.953, 385.727 77.467 L 385.370 68.500 385.435 77.919 M 301 88.128 C 297.975 88.619, 293.783 89.700, 291.684 90.529 C 289.585 91.358, 287.335 91.731, 286.684 91.358 C 286.033 90.985, 285.829 91.043, 286.232 91.488 C 286.635 91.933, 285.377 94.054, 283.437 96.201 C 281.498 98.348, 279.426 101.319, 278.834 102.802 C 277.648 105.774, 277.096 118.059, 278.178 117.390 C 278.551 117.160, 279.135 117.850, 279.476 118.924 C 279.817 119.998, 281.762 122.340, 283.798 124.127 C 285.834 125.915, 287.500 127.705, 287.500 128.106 C 287.500 128.506, 287.910 129.208, 288.410 129.667 C 288.939 130.151, 289.019 129.976, 288.601 129.250 C 287.630 127.562, 288.094 127.632, 296.343 130.414 C 300.279 131.742, 307.865 133.827, 313.200 135.047 C 324.470 137.623, 327.338 139.748, 326.822 145.141 C 326.616 147.285, 326.021 148.401, 325.176 148.225 C 324.447 148.074, 324.125 148.392, 324.458 148.933 C 325.637 150.841, 318.670 153.355, 312 153.428 C 303.971 153.517, 297.534 151.178, 293.035 146.536 C 289.737 143.133, 289.666 143.113, 286.154 144.580 C 284.202 145.396, 281.996 145.829, 281.251 145.543 C 280.408 145.219, 280.167 145.461, 280.612 146.181 C 281.095 146.962, 280.769 147.125, 279.612 146.681 C 278.456 146.238, 278.130 146.401, 278.612 147.181 C 279.070 147.923, 278.802 148.138, 277.869 147.780 C 274.874 146.631, 276.215 150.963, 280.285 155.587 C 287.520 163.806, 299.453 167.632, 314.905 166.687 C 326.070 166.005, 330.374 164.914, 335.426 161.486 C 339.597 158.655, 340.808 158.321, 339 160.500 C 336.643 163.340, 338.630 161.995, 341.563 158.766 C 343.178 156.987, 343.488 156.381, 342.250 157.421 C 339.328 159.874, 339.403 158.968, 342.500 154.405 C 345.818 149.515, 346.260 139.348, 343.396 133.802 C 340.295 127.798, 329.718 122.469, 315 119.493 C 310.325 118.548, 304.819 116.920, 302.765 115.875 C 291.245 110.014, 296.067 100.998, 310.718 101.002 C 316.694 101.003, 323.686 103.596, 323.290 105.664 C 323.174 106.268, 324.074 107.603, 325.290 108.631 L 327.500 110.500 325.595 108.250 C 323.167 105.382, 324.643 105.316, 327.668 108.158 L 329.964 110.315 336.482 107.545 C 340.067 106.022, 343 104.424, 343 103.996 C 343 103.567, 340.988 100.979, 338.529 98.244 C 333.295 92.421, 327.111 89.441, 317.332 88.027 C 309.525 86.899, 308.524 86.905, 301 88.128 M 350.432 94.747 L 350.500 102.500 357.500 102.580 L 364.500 102.660 357.791 102.285 L 351.083 101.911 350.724 94.452 L 350.365 86.993 350.432 94.747 M 445.500 88.170 C 443.300 88.672, 440.375 88.856, 439 88.581 C 437.625 88.305, 437.111 88.340, 437.858 88.659 C 438.711 89.023, 437.256 90.310, 433.948 92.119 C 427.996 95.374, 427.596 95.496, 428.601 93.750 C 429.019 93.024, 428.939 92.849, 428.410 93.333 C 427.910 93.792, 427.493 94.467, 427.485 94.833 C 427.452 96.254, 425.819 98.006, 425 97.500 C 424.526 97.207, 423.813 97.494, 423.415 98.138 C 422.930 98.923, 423.128 99.039, 424.015 98.490 C 425.021 97.869, 425.146 98.132, 424.535 99.586 C 422.806 103.695, 423.463 105.042, 428.672 108.069 L 433.845 111.075 437.304 108.038 C 441.120 104.688, 442.983 104.024, 440.921 106.750 C 439.778 108.261, 439.795 108.322, 441.048 107.200 C 441.847 106.485, 442.500 105.360, 442.500 104.700 C 442.500 104.040, 445.106 102.840, 448.291 102.034 C 453.682 100.670, 454.477 100.707, 459.791 102.565 C 462.931 103.663, 465.405 105.057, 465.290 105.662 C 465.174 106.267, 466.074 107.603, 467.290 108.631 L 469.500 110.500 467.595 108.250 C 466.439 106.884, 466.163 106, 466.894 106 C 468.439 106, 471.949 113.693, 471.978 117.143 C 471.999 119.629, 470.437 121.021, 467.668 120.985 C 466.904 120.975, 466.962 120.677, 467.835 120.123 C 468.634 119.616, 467.231 119.413, 464.335 119.615 C 461.676 119.801, 455.225 120.135, 450 120.358 C 438.844 120.834, 431.351 123.296, 425.302 128.473 C 423.081 130.375, 421.076 131.742, 420.846 131.513 C 420.616 131.283, 420.346 131.861, 420.246 132.798 C 420.145 133.734, 419.541 137.200, 418.903 140.500 C 417.469 147.922, 418.640 152.913, 423.072 158.279 C 427.681 163.859, 433.085 166.247, 442.359 166.800 C 452.277 167.393, 459.671 165.759, 465.828 161.616 C 468.473 159.836, 471.144 158.548, 471.763 158.754 C 472.381 158.960, 473.404 160.694, 474.035 162.607 L 475.183 166.084 482.341 165.792 L 489.500 165.500 489.500 138 C 489.500 110.847, 489.469 110.437, 487.051 105.500 C 485.704 102.750, 484.408 100.100, 484.171 99.611 C 483.934 99.122, 484.318 99.079, 485.025 99.515 C 485.873 100.040, 486.063 99.912, 485.585 99.138 C 485.187 98.494, 484.470 98.210, 483.991 98.506 C 482.918 99.169, 478.883 94.999, 479.551 93.918 C 479.816 93.489, 479.506 92.813, 478.862 92.415 C 478.077 91.930, 477.961 92.128, 478.510 93.015 C 479.081 93.940, 478.901 94.155, 477.914 93.726 C 464.124 87.744, 454.562 86.105, 445.500 88.170 M 564 87.620 C 569.791 88.362, 578.780 88.444, 578.348 87.750 C 578.092 87.338, 574.196 87.067, 569.691 87.150 C 565.186 87.232, 562.625 87.444, 564 87.620 M 607.869 88.844 C 599.664 90.988, 594.227 94.507, 589.098 100.995 C 582.680 109.115, 580.550 115.749, 580.587 127.500 C 580.619 137.399, 580.720 137.845, 585.542 149.414 C 586.147 150.866, 586.020 151.131, 585.015 150.510 C 584.108 149.949, 583.929 150.076, 584.446 150.912 C 584.861 151.584, 585.451 151.883, 585.757 151.576 C 586.063 151.270, 588.433 153.002, 591.024 155.426 C 600.130 163.943, 610.373 167.496, 623.727 166.769 C 631.475 166.348, 635.241 165.480, 642.414 162.465 C 643.907 161.837, 644.147 161.972, 643.504 163.080 C 643.015 163.922, 643.050 164.161, 643.590 163.667 C 644.090 163.208, 644.507 162.533, 644.515 162.167 C 644.545 160.881, 646.128 159, 647.181 159 C 647.815 159, 647.690 159.707, 646.872 160.750 C 645.630 162.334, 645.665 162.370, 647.239 161.137 C 648.195 160.387, 648.755 159.412, 648.482 158.971 C 648.209 158.529, 649.339 156.815, 650.993 155.161 C 654.661 151.493, 654.724 150.651, 651.444 149.156 C 649.917 148.461, 649.173 147.528, 649.598 146.841 C 650.031 146.141, 649.869 145.963, 649.184 146.386 C 647.523 147.413, 641.779 144.174, 642.659 142.707 C 643.110 141.957, 642.748 142.016, 641.703 142.863 C 640.778 143.613, 640.250 144.596, 640.530 145.048 C 641.467 146.565, 634.477 150.901, 628.646 152.420 C 622.867 153.925, 620.248 153.826, 612.198 151.796 C 609.311 151.068, 608.064 150.276, 608.405 149.388 C 608.684 148.660, 608.413 147.755, 607.802 147.378 C 607.129 146.962, 606.972 147.146, 607.405 147.845 C 608.782 150.074, 606.346 148.971, 603.630 146.136 C 600.478 142.846, 597.328 134.010, 599.298 133.985 C 600.133 133.974, 600.093 133.711, 599.165 133.123 C 596.749 131.591, 600.765 131.362, 628.749 131.432 C 643.735 131.469, 655.998 131.136, 655.999 130.691 C 655.999 130.246, 656.526 130.207, 657.170 130.605 C 657.975 131.103, 658.124 130.765, 657.646 129.519 C 657.264 128.525, 656.505 124.561, 655.959 120.712 C 654.303 109.037, 650.213 101.586, 641.817 94.949 C 633.122 88.077, 619.907 85.700, 607.869 88.844 M 693.500 88.451 C 690.750 89.128, 687.060 90.428, 685.300 91.341 C 681.471 93.326, 680.642 93.418, 681.601 91.750 C 682.019 91.024, 681.939 90.849, 681.410 91.333 C 680.910 91.792, 680.500 92.537, 680.500 92.990 C 680.500 93.443, 678.587 95.854, 676.250 98.348 C 673.913 100.842, 671.993 103.471, 671.985 104.191 C 671.973 105.153, 671.688 105.102, 670.909 104 C 669.993 102.705, 669.903 102.702, 670.250 103.978 C 670.471 104.791, 671.741 105.466, 673.072 105.478 C 674.403 105.490, 675.494 106.025, 675.496 106.667 C 675.498 107.308, 675.910 108.208, 676.410 108.667 C 676.939 109.151, 677.019 108.976, 676.601 108.250 C 675.666 106.624, 676.466 106.672, 679.899 108.448 C 682.858 109.978, 687.998 109.956, 688.089 108.413 C 688.201 106.511, 691.494 103.896, 693.212 104.345 C 694.197 104.603, 694.764 104.426, 694.471 103.953 C 693.655 102.633, 701.672 100.824, 705.585 101.446 C 710.453 102.220, 715.178 104.363, 717.319 106.767 C 719.560 109.284, 722.333 118, 720.893 118 C 720.337 118, 720.128 118.399, 720.430 118.886 C 720.731 119.374, 719.970 120.043, 718.739 120.373 C 715.543 121.229, 714.138 121.011, 716.500 120.025 C 717.790 119.486, 716.548 119.325, 713 119.570 C 709.975 119.778, 703.348 120.156, 698.273 120.408 C 687.518 120.943, 679.300 124.032, 673.954 129.547 C 672.155 131.403, 670.335 132.707, 669.911 132.445 C 669.486 132.182, 668.813 132.494, 668.415 133.138 C 667.963 133.869, 668.124 134.041, 668.845 133.595 C 670.319 132.685, 670.302 132.892, 668.500 138 C 666.350 144.095, 666.641 148.954, 669.496 154.581 C 672.386 160.277, 672.405 160.352, 670.750 159.398 C 670.063 159.002, 670.591 159.875, 671.924 161.339 C 674.479 164.143, 676.130 165.067, 674 162.500 C 672.287 160.436, 673.043 160.608, 678.124 163.435 C 686.100 167.875, 701.588 167.879, 712.414 163.444 C 713.864 162.850, 714.129 162.982, 713.510 163.985 C 712.961 164.872, 713.077 165.070, 713.862 164.585 C 714.506 164.187, 714.786 163.463, 714.484 162.975 C 713.914 162.051, 718.348 158.713, 720.581 158.385 C 721.302 158.279, 721.627 158.809, 721.324 159.599 C 721.028 160.369, 721.340 161, 722.018 161 C 722.856 161, 723.072 162.040, 722.693 164.250 C 722.386 166.037, 722.329 167.050, 722.567 166.500 C 722.816 165.921, 726.622 165.584, 731.603 165.700 L 740.209 165.901 739.792 138.700 C 739.378 111.719, 739.353 111.453, 736.687 105.626 C 733.646 98.978, 733.551 98.605, 735.155 99.595 C 735.892 100.051, 736.037 99.868, 735.554 99.088 C 735.139 98.416, 734.555 98.112, 734.256 98.411 C 733.957 98.710, 732.112 97.550, 730.157 95.833 C 725.477 91.724, 719.943 89.358, 711.994 88.069 C 704.024 86.776, 699.970 86.859, 693.500 88.451 M 773.500 88.112 C 770.750 88.661, 767.307 89.198, 765.848 89.305 C 764.390 89.412, 763.451 89.914, 763.762 90.420 C 764.074 90.926, 763.585 91.055, 762.676 90.706 C 761.722 90.340, 761.125 90.532, 761.262 91.161 C 761.393 91.760, 760.875 92.477, 760.111 92.755 C 759.179 93.093, 758.983 92.837, 759.515 91.975 C 760.051 91.108, 759.912 90.936, 759.088 91.446 C 758.416 91.861, 758.123 92.456, 758.436 92.769 C 758.748 93.082, 758.374 94.049, 757.604 94.919 C 754.910 97.959, 752.014 104.059, 751.380 108.028 C 750.513 113.449, 753.142 120.037, 757.815 124.152 C 759.842 125.936, 761.393 127.741, 761.262 128.162 C 761.131 128.583, 761.653 128.687, 762.422 128.392 C 763.190 128.097, 765.149 128.543, 766.773 129.383 C 769.154 130.614, 788.587 135.956, 790.899 136.015 C 791.230 136.024, 790.825 136.487, 790 137.046 C 788.901 137.789, 789.275 137.880, 791.399 137.385 C 793.322 136.936, 794.079 137.063, 793.648 137.761 C 793.248 138.407, 793.724 138.623, 794.882 138.321 C 798.325 137.420, 801.161 143.811, 799.379 148.455 C 797.678 152.887, 786.282 154.957, 776.867 152.544 C 770.789 150.987, 765.864 147.818, 766.294 145.740 C 766.699 143.780, 760.994 143.962, 756.925 146.038 C 754.659 147.194, 752.218 147.914, 751.499 147.638 C 750.631 147.305, 750.272 147.873, 750.432 149.327 C 751.222 156.532, 760.358 163.054, 773.868 166.061 C 781.980 167.867, 797.289 166.827, 803.742 164.031 C 809.159 161.685, 815.375 155.775, 817.045 151.383 C 819.748 144.273, 816.691 131.810, 811.394 128.339 C 810.087 127.482, 809.308 126.311, 809.663 125.736 C 810.018 125.161, 809.837 124.983, 809.261 125.339 C 808.684 125.695, 806.572 125.301, 804.566 124.463 C 802.561 123.625, 794.976 121.362, 787.710 119.433 C 777.230 116.650, 773.904 115.333, 771.617 113.060 C 768.002 109.468, 768.591 105.860, 773.277 102.906 C 779.445 99.018, 798.310 102.336, 797.167 107.109 C 796.983 107.874, 797.172 108.162, 797.586 107.748 C 797.999 107.334, 799.145 107.726, 800.131 108.619 C 801.794 110.123, 802.384 110.056, 808.212 107.705 C 813.927 105.400, 814.472 104.925, 814.198 102.493 C 813.985 100.609, 814.253 100.038, 815.102 100.563 C 815.892 101.051, 816.048 100.887, 815.554 100.088 C 815.139 99.416, 814.560 99.107, 814.266 99.401 C 813.972 99.694, 811.721 98.164, 809.263 96.001 C 806.805 93.837, 802.380 91.163, 799.429 90.059 C 793.034 87.667, 780.455 86.722, 773.500 88.112 M 860.252 88.113 C 857.366 88.480, 853.194 89.505, 850.982 90.390 C 846.141 92.328, 845.671 92.366, 846.601 90.750 C 847.019 90.024, 846.939 89.849, 846.410 90.333 C 845.910 90.792, 845.496 91.467, 845.492 91.833 C 845.487 92.200, 843.192 94.636, 840.391 97.247 C 832.934 104.199, 828.733 113.785, 828.186 125.098 C 827.738 134.352, 829.488 142.744, 833.088 148.618 C 835.306 152.235, 835.512 153.413, 833.750 152.399 C 833.024 151.981, 832.849 152.061, 833.333 152.590 C 833.792 153.090, 834.467 153.500, 834.833 153.501 C 836.176 153.502, 843.926 160.311, 843.454 161.074 C 843.186 161.507, 843.494 162.187, 844.138 162.585 C 844.869 163.037, 845.041 162.876, 844.595 162.155 C 844.203 161.520, 844.034 161, 844.220 161 C 845.315 161, 857.923 166.743, 857.578 167.085 C 856.250 168.402, 880.074 166.124, 884 164.559 C 886.475 163.572, 889.475 162.705, 890.667 162.633 C 891.858 162.560, 892.650 162.316, 892.425 162.092 C 891.838 161.505, 894.070 159, 895.181 159 C 895.697 159, 895.789 159.563, 895.387 160.250 C 894.985 160.938, 895.634 160.643, 896.828 159.595 C 899.254 157.467, 899.852 156.048, 897.500 158 C 894.813 160.230, 895.921 157.925, 899.032 154.814 C 901.221 152.625, 901.780 151.439, 901.041 150.549 C 900.478 149.871, 900.337 148.996, 900.728 148.605 C 901.119 148.214, 900.591 148.220, 899.555 148.617 C 898.144 149.159, 897.877 149.008, 898.490 148.015 C 899.043 147.121, 898.923 146.929, 898.122 147.425 C 897.469 147.828, 895.411 147.260, 893.548 146.161 C 890.212 144.193, 890.137 144.191, 888.426 146.082 C 886.254 148.482, 884.263 148.628, 886.128 146.250 C 887.370 144.666, 887.335 144.630, 885.761 145.863 C 884.805 146.613, 884.275 147.636, 884.585 148.137 C 885.698 149.938, 876.465 152.956, 869.402 153.099 C 862.314 153.243, 854.300 150.941, 855.444 149.090 C 855.768 148.567, 855.506 147.813, 854.862 147.415 C 854.131 146.963, 853.959 147.124, 854.405 147.845 C 855.691 149.928, 853.399 149.054, 851.070 146.574 C 849.724 145.142, 849.102 143.645, 849.550 142.920 C 850.071 142.076, 849.894 141.947, 848.985 142.510 C 848.015 143.109, 847.836 142.868, 848.319 141.612 C 848.681 140.668, 848.579 140.142, 848.093 140.442 C 847.607 140.743, 846.937 140.279, 846.605 139.412 C 845.466 136.446, 846 134.113, 848.165 132.597 C 849.988 131.320, 854.563 131.114, 877.165 131.291 L 904.001 131.500 904.119 128.500 C 904.272 124.610, 904.300 125.178, 903.692 120 C 901.841 104.234, 891.119 92.081, 875.969 88.576 C 869.254 87.023, 868.900 87.012, 860.252 88.113 M 516.681 89.612 C 517.142 90.812, 516.971 91.100, 516.114 90.570 C 515.439 90.154, 510.610 89.712, 505.381 89.589 L 495.875 89.365 496.501 91.861 C 496.846 93.234, 498.647 97.764, 500.504 101.928 C 510.991 125.446, 528 165.775, 528 167.123 C 528 167.731, 526.837 170.366, 525.415 172.978 C 522.322 178.663, 517.031 182, 511.114 182 L 507 182 507 187.435 C 507 190.424, 507.463 194.088, 508.029 195.576 C 509.052 198.267, 509.098 198.278, 516.275 197.611 C 530.834 196.258, 535.786 191.350, 544.499 169.638 C 551.331 152.613, 554.838 144.043, 556.016 141.500 C 556.525 140.400, 559.381 133.425, 562.363 126 C 565.345 118.575, 569.858 107.465, 572.392 101.310 C 574.926 95.156, 577 89.874, 577 89.573 C 577 88.673, 558.908 89.682, 558.091 90.628 C 557.344 91.493, 550.552 108.982, 542.458 130.879 C 540.145 137.138, 538.005 141.638, 537.703 140.879 C 537.243 139.728, 536.996 139.723, 536.208 140.845 C 535.495 141.862, 535.091 141.495, 534.553 139.345 C 534.162 137.780, 531.382 130.286, 528.374 122.690 C 519.319 99.823, 516.923 92.818, 517.516 90.949 C 517.827 89.970, 517.618 88.882, 517.052 88.532 C 516.419 88.141, 516.276 88.556, 516.681 89.612 M 196.932 96.360 C 198.819 98.345, 200.579 99.755, 200.842 99.491 C 201.502 98.831, 197.963 95.041, 195.511 93.782 C 194.272 93.145, 194.817 94.135, 196.932 96.360 M 614.244 101.664 C 613.553 101.943, 613.182 102.485, 613.419 102.869 C 613.656 103.253, 612.647 103.552, 611.175 103.534 C 609.471 103.512, 608.600 103.981, 608.775 104.824 C 608.929 105.568, 608.567 105.851, 607.951 105.470 C 607.346 105.096, 605.760 105.816, 604.426 107.070 C 601.946 109.399, 601.072 111.691, 603.155 110.405 C 603.876 109.959, 604.037 110.131, 603.585 110.862 C 603.187 111.506, 602.495 111.806, 602.047 111.529 C 600.953 110.853, 598.733 116.372, 599.174 118.671 C 599.499 120.358, 601.051 120.521, 619.125 120.771 L 638.725 121.041 638.454 117.626 C 638.134 113.595, 636.267 109.717, 635.019 110.488 C 634.535 110.788, 633.813 110.506, 633.415 109.862 C 632.963 109.131, 633.124 108.959, 633.845 109.405 C 635.688 110.543, 635.180 108.473, 633.171 106.655 C 631.067 104.750, 629.545 104.455, 630.595 106.155 C 631.041 106.876, 630.869 107.037, 630.138 106.585 C 629.494 106.187, 629.212 105.465, 629.512 104.981 C 629.811 104.497, 629.171 103.627, 628.089 103.047 C 626.783 102.349, 625.913 102.332, 625.502 102.997 C 625.161 103.549, 624.346 103.993, 623.691 103.985 C 622.874 103.974, 622.917 103.705, 623.827 103.128 C 625.862 101.838, 617.124 100.503, 614.244 101.664 M 859.594 102.041 C 853.785 103.779, 846.970 112.291, 846.417 118.500 C 846.269 120.150, 846.378 120.938, 846.658 120.250 C 846.938 119.563, 847.606 119, 848.142 119 C 848.679 119, 848.840 119.450, 848.500 120 C 848.096 120.654, 854.637 121, 867.382 121 C 878.107 121, 887.117 120.620, 887.403 120.156 C 888.750 117.978, 885.523 111.231, 881.068 106.909 C 875.152 101.169, 867.960 99.539, 859.594 102.041 M 307.250 102.716 C 308.762 102.945, 311.238 102.945, 312.750 102.716 C 314.262 102.487, 313.025 102.300, 310 102.300 C 306.975 102.300, 305.738 102.487, 307.250 102.716 M 385.228 122.250 L 385.455 142.500 385.749 122.784 L 386.042 103.067 396.771 102.746 L 407.500 102.425 396.250 102.212 L 385 102 385.228 122.250 M 0.456 148.500 C 0.456 170.500, 0.588 179.358, 0.749 168.183 C 0.910 157.009, 0.910 139.009, 0.749 128.183 C 0.587 117.358, 0.455 126.500, 0.456 148.500 M 140.500 115 C 143.209 117.750, 145.650 120, 145.925 120 C 146.200 120, 144.209 117.750, 141.500 115 C 138.791 112.250, 136.350 110, 136.075 110 C 135.800 110, 137.791 112.250, 140.500 115 M 491.422 136 C 491.422 147.275, 491.568 151.887, 491.746 146.250 C 491.924 140.613, 491.924 131.387, 491.746 125.750 C 491.568 120.112, 491.422 124.725, 491.422 136 M 205.441 146 C 205.441 161.675, 205.579 168.087, 205.748 160.250 C 205.917 152.412, 205.917 139.587, 205.748 131.750 C 205.579 123.912, 205.441 130.325, 205.441 146 M 449.750 118.732 C 452.087 118.943, 455.913 118.943, 458.250 118.732 C 460.587 118.522, 458.675 118.349, 454 118.349 C 449.325 118.349, 447.413 118.522, 449.750 118.732 M 699.728 118.722 C 701.503 118.943, 704.653 118.946, 706.728 118.730 C 708.802 118.513, 707.350 118.333, 703.500 118.328 C 699.650 118.324, 697.952 118.501, 699.728 118.722 M 608.750 119.745 C 613.837 119.927, 622.163 119.927, 627.250 119.745 C 632.337 119.564, 628.175 119.415, 618 119.415 C 607.825 119.415, 603.663 119.564, 608.750 119.745 M 858.250 119.745 C 863.063 119.928, 870.938 119.928, 875.750 119.745 C 880.563 119.561, 876.625 119.411, 867 119.411 C 857.375 119.411, 853.438 119.561, 858.250 119.745 M 826.328 127.500 C 826.333 131.350, 826.513 132.802, 826.730 130.728 C 826.946 128.653, 826.943 125.503, 826.722 123.728 C 826.501 121.952, 826.324 123.650, 826.328 127.500 M 706 130.760 C 698.514 131.316, 695.560 132.105, 697.069 133.145 C 698.146 133.887, 697.977 133.985, 696.382 133.540 C 693.155 132.640, 689.219 134.591, 687.042 138.172 C 685.476 140.747, 685.325 141.694, 686.291 142.889 C 687.244 144.068, 687.236 144.225, 686.250 143.633 C 684.724 142.716, 684.717 142.888, 686.108 146.881 C 687.648 151.298, 692.081 153.431, 699.638 153.390 C 712.052 153.324, 720.178 147.610, 721.497 138.021 C 721.887 135.189, 721.911 132.578, 721.551 132.218 C 720.709 131.376, 710.542 130.423, 706 130.760 M 445.875 132.828 C 440.251 134.861, 437.731 136.857, 438.443 138.712 C 438.737 139.478, 438.555 139.843, 438.039 139.524 C 437.523 139.205, 436.803 140.534, 436.438 142.477 C 435.603 146.928, 437.831 150.614, 442.546 152.584 C 447.747 154.757, 460.230 154.099, 456.835 151.831 C 455.974 151.256, 456.444 151.158, 458.157 151.555 C 460.973 152.207, 465.411 150.474, 464.539 149.063 C 464.254 148.602, 464.771 148.288, 465.688 148.363 C 468.261 148.575, 472 142.313, 472 137.793 C 472 135.062, 471.647 134.100, 470.830 134.605 C 470.056 135.084, 469.865 134.793, 470.267 133.747 C 471.134 131.487, 469.063 130.989, 459.168 131.078 C 453.759 131.126, 448.761 131.784, 445.875 132.828 M 71.430 168 C 71.430 180.925, 71.573 186.213, 71.747 179.750 C 71.921 173.287, 71.921 162.712, 71.747 156.250 C 71.573 149.787, 71.430 155.075, 71.430 168 M 135.420 166.500 C 135.419 177.500, 135.565 182.136, 135.745 176.803 C 135.924 171.470, 135.925 162.470, 135.746 156.803 C 135.568 151.136, 135.421 155.500, 135.420 166.500 M 307.750 168.732 C 310.087 168.943, 313.913 168.943, 316.250 168.732 C 318.587 168.522, 316.675 168.349, 312 168.349 C 307.325 168.349, 305.413 168.522, 307.750 168.732 M 442.250 168.728 C 444.313 168.944, 447.688 168.944, 449.750 168.728 C 451.813 168.513, 450.125 168.336, 446 168.336 C 441.875 168.336, 440.188 168.513, 442.250 168.728 M 617.250 168.728 C 619.313 168.944, 622.688 168.944, 624.750 168.728 C 626.813 168.513, 625.125 168.336, 621 168.336 C 616.875 168.336, 615.188 168.513, 617.250 168.728 M 691.750 168.723 C 693.538 168.945, 696.462 168.945, 698.250 168.723 C 700.038 168.502, 698.575 168.320, 695 168.320 C 691.425 168.320, 689.962 168.502, 691.750 168.723 M 780.750 168.732 C 783.087 168.943, 786.913 168.943, 789.250 168.732 C 791.587 168.522, 789.675 168.349, 785 168.349 C 780.325 168.349, 778.413 168.522, 780.750 168.732 M 864.250 168.728 C 866.313 168.944, 869.688 168.944, 871.750 168.728 C 873.813 168.513, 872.125 168.336, 868 168.336 C 863.875 168.336, 862.188 168.513, 864.250 168.728" stroke="none" fill="#fb2e5b" fill-rule="evenodd"/></svg>