<svg xmlns="http://www.w3.org/2000/svg" width="416" height="407" viewBox="0 0 416 407" version="1.1"><path d="M 192.303 2.532 C 185.435 4.382, 175.121 9.151, 172 11.919 C 169.963 13.725, 170.241 13.657, 173.500 11.549 C 180.063 7.306, 192.656 2.946, 200.867 2.075 C 207.960 1.323, 208.111 1.261, 203 1.199 C 199.975 1.162, 195.162 1.762, 192.303 2.532 M 210.083 1.367 C 210.313 1.570, 213.425 1.984, 217 2.288 C 221.096 2.636, 222.390 2.544, 220.500 2.039 C 217.445 1.222, 209.325 0.699, 210.083 1.367 M 235.393 8.141 C 244.831 13.119, 239.539 8.153, 327.499 94.571 C 356.650 123.211, 384.417 150.370, 389.204 154.925 C 393.991 159.480, 400.234 166.648, 403.078 170.853 C 405.921 175.059, 407.978 177.704, 407.648 176.730 C 405.953 171.732, 397.658 161.957, 383.376 148.125 C 374.644 139.669, 356.700 122.109, 343.500 109.103 C 281.051 47.570, 254.996 22.070, 249.581 17.181 C 243.909 12.062, 234.576 5.981, 232.500 6.054 C 231.950 6.073, 233.252 7.012, 235.393 8.141 M 97.827 83.750 C 20.999 160.228, 18.060 163.199, 14.373 168.119 C 9.082 175.181, 1.916 191.650, 2.066 196.407 C 2.102 197.558, 2.789 196.025, 3.593 193 C 5.688 185.114, 10.987 174.458, 16.317 167.415 C 18.850 164.068, 54.256 128.180, 94.997 87.665 C 135.738 47.149, 168.808 14, 168.484 14 C 168.161 14, 136.365 45.388, 97.827 83.750 M 200.754 45.009 C 196.563 47.285, 175.149 67.897, 117.176 125.457 C 70.697 171.604, 56.879 185.553, 54.053 189.180 C 51.540 192.405, 48.034 199.916, 48.069 202 C 48.082 202.825, 48.902 201.433, 49.890 198.908 C 50.879 196.382, 53.074 192.299, 54.770 189.835 C 57.596 185.726, 181.083 62.955, 194.200 51.213 C 201.128 45.011, 206.145 43.239, 212.599 44.715 C 215.768 45.441, 216.840 45.440, 216.115 44.715 C 214.052 42.652, 204.766 42.830, 200.754 45.009 M 290.288 117.822 C 351.599 179.040, 362.507 190.362, 365.038 195.410 C 366.667 198.660, 367.996 200.685, 367.991 199.910 C 367.954 194.438, 359.853 185.741, 291.294 117.559 C 252.548 79.027, 220.319 47.195, 219.673 46.822 C 219.028 46.448, 250.804 78.398, 290.288 117.822 M 408.649 180.500 C 409.023 181.600, 410.491 185.650, 411.914 189.500 L 414.500 196.500 414.792 270.112 C 415.042 333.042, 414.863 344.787, 413.558 351.045 C 411.644 360.222, 412.190 361.255, 414.369 352.581 C 415.802 346.876, 415.998 337.386, 415.983 274.294 C 415.964 196.592, 415.837 194.490, 410.526 183.693 C 409.121 180.837, 408.276 179.400, 408.649 180.500 M 195.500 191.422 C 186.329 194.377, 179.948 198.444, 168.941 208.352 C 162.648 214.016, 156.848 219.516, 156.050 220.575 C 154.939 222.051, 162.123 215.914, 164.973 212.953 C 165.263 212.651, 169.038 209.343, 173.363 205.600 C 188.251 192.714, 202.584 188.472, 217.942 192.407 C 227.521 194.861, 233.687 198.912, 251.168 214.239 C 276.359 236.327, 281.404 242.048, 285.060 252.673 C 286.857 257.898, 287.004 261.445, 287.060 300.907 C 287.092 324.333, 287.475 345.665, 287.910 348.312 C 288.916 354.429, 291.464 357.905, 297.059 360.792 C 301.386 363.026, 302.128 363.077, 326 362.792 C 353.164 362.468, 353.153 362.471, 361.132 355.262 C 365.035 351.736, 369.022 345.397, 368.978 342.790 C 368.966 342.080, 368.136 343.300, 367.133 345.500 C 364.566 351.130, 360.733 355.370, 355.232 358.665 L 350.500 361.500 326 361.792 C 302.137 362.077, 301.384 362.025, 297.023 359.792 C 294.379 358.439, 291.717 356.067, 290.523 354 C 288.592 350.659, 288.476 348.341, 287.974 303 C 287.383 249.564, 287.707 251.948, 279.478 240.417 C 274.435 233.350, 239.069 201.346, 231.210 196.738 C 220.661 190.553, 205.298 188.266, 195.500 191.422 M 1.226 273.090 C 1.011 344.190, 1.091 348.037, 2.951 355.307 C 4.023 359.501, 5.627 364.186, 6.514 365.717 C 7.401 367.247, 7.817 367.600, 7.439 366.500 C 7.060 365.400, 5.796 361.800, 4.631 358.500 C 2.561 352.641, 2.499 350.693, 1.982 275.500 L 1.453 198.500 1.226 273.090 M 47.473 273 C 47.473 311.225, 47.598 326.862, 47.750 307.750 C 47.902 288.637, 47.902 257.362, 47.750 238.250 C 47.598 219.137, 47.473 234.775, 47.473 273 M 369.472 273 C 369.472 309.575, 369.597 324.538, 369.750 306.250 C 369.902 287.962, 369.902 258.038, 369.750 239.750 C 369.597 221.463, 369.472 236.425, 369.472 273 M 144.479 231.250 L 135.500 240.500 144.750 231.521 C 153.341 223.181, 154.455 222, 153.729 222 C 153.580 222, 149.418 226.162, 144.479 231.250 M 208.313 237.960 C 210.960 238.451, 214.168 239.536, 215.443 240.371 C 220.921 243.960, 241.811 264.130, 242.984 266.962 C 243.691 268.668, 244.467 269.867, 244.708 269.625 C 246.515 267.819, 235.073 255.371, 220.305 243.076 C 214.899 238.575, 213.435 237.865, 208.805 237.493 L 203.500 237.067 208.313 237.960 M 195.840 242.211 C 184.738 250.965, 172.372 263.816, 171.161 267.857 C 170.336 270.609, 170.066 285.318, 170.227 318.616 L 170.454 365.500 170.977 317 C 171.443 273.830, 171.687 268.158, 173.203 265.390 C 174.985 262.138, 190.031 247.919, 198.327 241.648 C 200.981 239.642, 202.709 238, 202.166 238 C 201.624 238, 198.777 239.895, 195.840 242.211 M 134.173 242.292 C 132.484 244.327, 128.016 254.341, 128.057 256 C 128.077 256.825, 128.918 255.391, 129.926 252.813 C 130.934 250.236, 132.750 246.523, 133.961 244.563 C 136.136 241.044, 136.254 239.785, 134.173 242.292 M 127.203 268 C 127.051 273.225, 126.799 293.925, 126.644 314 C 126.342 352.929, 126.386 352.577, 121.128 358.420 L 118.500 361.341 121.740 359.110 C 127.753 354.968, 128.056 352.110, 127.750 302.457 C 127.601 278.281, 127.354 262.775, 127.203 268 M 245.462 318 C 245.462 344.125, 245.591 354.813, 245.749 341.750 C 245.907 328.688, 245.907 307.313, 245.749 294.250 C 245.591 281.188, 245.462 291.875, 245.462 318 M 48.039 343.816 C 47.934 347.345, 55.345 356.136, 60.500 358.597 C 62.150 359.384, 62.610 359.460, 61.523 358.764 C 57.426 356.145, 51.014 349.266, 49.573 345.946 C 48.751 344.051, 48.061 343.092, 48.039 343.816 M 65 360.954 C 65.825 361.513, 67.362 361.976, 68.417 361.985 C 70.975 362.005, 70.177 361.433, 66.500 360.610 C 64.309 360.120, 63.905 360.213, 65 360.954 M 407.549 368.368 C 401.943 379.903, 389.034 392.737, 377 398.739 C 372.325 401.071, 368.995 402.983, 369.599 402.989 C 370.204 402.995, 373.804 401.364, 377.599 399.363 C 391.803 391.878, 402.971 380.534, 409.262 367.201 C 410.897 363.736, 412.069 360.752, 411.867 360.569 C 411.665 360.386, 409.722 363.896, 407.549 368.368 M 81.304 362.747 C 87.247 362.924, 96.697 362.923, 102.304 362.745 C 107.912 362.567, 103.050 362.422, 91.500 362.423 C 79.950 362.424, 75.362 362.570, 81.304 362.747 M 246.543 369 C 247.932 376.312, 252.764 384.444, 259.700 391.139 C 266.659 397.858, 271.193 400.671, 280.952 404.323 C 286.145 406.267, 288.709 406.408, 321 406.533 L 355.500 406.666 321 406.027 C 283.208 405.327, 282.969 405.292, 270.122 398.389 C 260.935 393.454, 248.042 377.102, 247.985 370.313 C 247.976 369.316, 247.499 367.825, 246.924 367 C 246.154 365.894, 246.053 366.420, 246.543 369 M 10.107 373 C 11.423 375.475, 16.550 381.607, 21.500 386.626 C 29.019 394.250, 31.920 396.435, 39.128 399.903 C 52.833 406.496, 56.787 406.992, 94 406.784 L 126.500 406.602 91 405.961 C 67.282 405.534, 54.172 404.909, 51.500 404.081 C 36.888 399.550, 21.430 388.267, 13.442 376.303 C 8.310 368.616, 7.180 367.498, 10.107 373 M 166.121 376.108 C 163.423 383.067, 153.278 394.691, 147.518 397.425 C 145.630 398.320, 143.773 399.558, 143.391 400.176 C 141.686 402.934, 151.971 395.947, 157.083 390.873 C 162.509 385.489, 169.654 373.461, 168.853 371.058 C 168.656 370.468, 167.427 372.741, 166.121 376.108 M 131 404.578 L 126.500 405.960 130.500 405.389 C 132.700 405.074, 135.175 404.422, 136 403.939 C 138.079 402.722, 136.309 402.948, 131 404.578 M 361 404.550 C 358.047 405.396, 357.360 405.841, 359 405.843 C 360.375 405.846, 363.075 405.241, 365 404.500 C 369.391 402.809, 366.973 402.839, 361 404.550" stroke="none" fill="#fa252e" fill-rule="evenodd"/><path d="M 207.559 1.095 C 208.028 1.855, 206.394 2.084, 202.210 1.845 C 198.897 1.655, 196.395 1.837, 196.652 2.250 C 197.073 2.927, 194.385 3.361, 189.800 3.354 C 188.865 3.353, 188.372 3.794, 188.706 4.333 C 189.067 4.917, 188.437 5.086, 187.155 4.751 C 185.759 4.386, 185.232 4.566, 185.663 5.263 C 186.099 5.969, 185.680 6.091, 184.445 5.617 C 183.409 5.220, 182.883 5.216, 183.276 5.609 C 183.993 6.326, 176.558 10.198, 174.294 10.286 C 173.631 10.312, 173.291 10.661, 173.538 11.062 C 173.983 11.782, 172.118 12.860, 170.841 12.623 C 170.478 12.555, 169.204 13.742, 168.010 15.260 C 166.817 16.777, 165.502 17.810, 165.088 17.554 C 164.675 17.299, 162.123 19.432, 159.418 22.295 L 154.500 27.500 160 22.500 L 165.500 17.501 160.088 23.196 C 157.111 26.329, 154.206 28.804, 153.633 28.696 C 153.060 28.588, 152.570 28.956, 152.545 29.512 C 152.496 30.604, 104.159 78.534, 102.500 79.137 C 101.950 79.337, 101.595 79.784, 101.710 80.131 C 101.826 80.478, 100.934 81.603, 99.728 82.631 C 97.565 84.474, 97.555 84.472, 99.017 82.500 C 100.388 80.651, 100.369 80.603, 98.761 81.863 C 97.805 82.613, 97.221 83.549, 97.465 83.943 C 98.012 84.828, 87.585 95.252, 86.870 94.536 C 86.586 94.253, 85.037 95.479, 83.427 97.260 L 80.500 100.500 84 97.506 C 87.404 94.595, 87.392 94.628, 83.587 98.715 C 81.436 101.026, 79.229 102.641, 78.683 102.304 C 78.137 101.967, 77.967 102.137, 78.304 102.683 C 78.641 103.229, 77.136 105.414, 74.959 107.540 C 72.781 109.666, 71 111.034, 71 110.581 C 71 110.127, 70.330 110.311, 69.511 110.991 C 68.692 111.671, 68.226 112.557, 68.475 112.960 C 68.725 113.364, 67.595 114.972, 65.964 116.534 C 64.334 118.096, 63 119.010, 63 118.565 C 63 118.119, 62.330 118.311, 61.511 118.991 C 60.692 119.671, 60.237 120.575, 60.500 121 C 61.185 122.108, 58.477 124.129, 57.498 123.241 C 57.048 122.834, 56.960 122.994, 57.304 123.597 C 57.943 124.719, 52.751 130.417, 51.882 129.548 C 51.618 129.284, 45.799 134.791, 38.951 141.784 L 26.500 154.500 39.500 142.001 L 52.500 129.502 37.513 144.751 C 23.686 158.819, 18.167 163.953, 24.076 157.250 L 26.500 154.500 23.754 156.921 C 22.244 158.252, 21.212 159.545, 21.461 159.794 C 22.353 160.686, 16.757 166.969, 15.639 166.330 C 15.012 165.972, 14.822 166.036, 15.215 166.471 C 16.272 167.642, 14.084 171.170, 12.795 170.373 C 12.130 169.962, 11.974 170.149, 12.403 170.844 C 13.244 172.204, 10.649 176.316, 9.607 175.274 C 9.215 174.882, 9.220 175.409, 9.617 176.445 C 10.117 177.746, 9.982 178.107, 9.181 177.612 C 8.401 177.130, 8.238 177.456, 8.681 178.612 C 9.125 179.769, 8.962 180.095, 8.181 179.612 C 7.401 179.130, 7.238 179.456, 7.681 180.612 C 8.096 181.692, 7.948 182.086, 7.283 181.675 C 6.701 181.316, 6.246 181.579, 6.270 182.261 C 6.383 185.394, 5.924 187.071, 5.093 186.558 C 4.595 186.249, 4.440 186.968, 4.751 188.155 C 5.112 189.538, 4.933 190.076, 4.251 189.655 C 3.569 189.234, 3.389 189.772, 3.751 191.155 C 4.084 192.431, 3.916 193.066, 3.338 192.709 C 2.750 192.346, 2.542 193.335, 2.815 195.195 C 3.161 197.552, 2.960 198.093, 1.964 197.478 C 1.028 196.899, 0.839 197.137, 1.292 198.319 C 1.640 199.225, 1.978 235.154, 2.043 278.162 C 2.122 330.488, 2.491 355.884, 3.159 354.928 C 3.900 353.868, 4.045 354.200, 3.723 356.220 C 3.456 357.895, 3.678 358.699, 4.302 358.313 C 4.923 357.930, 5.097 358.523, 4.751 359.845 C 4.440 361.032, 4.595 361.751, 5.093 361.442 C 5.924 360.929, 6.383 362.606, 6.270 365.739 C 6.246 366.421, 6.701 366.684, 7.283 366.325 C 7.942 365.918, 8.099 366.299, 7.701 367.336 C 7.350 368.251, 7.487 369, 8.006 369 C 9.334 369, 12.070 374.580, 11.210 375.534 C 10.820 375.966, 11.062 375.997, 11.750 375.601 C 12.437 375.206, 13.056 375.359, 13.125 375.941 C 13.194 376.523, 13.306 377.412, 13.375 377.917 C 13.444 378.421, 13.910 379.208, 14.410 379.667 C 14.946 380.157, 15.013 379.883, 14.574 379 C 14.163 378.175, 14.730 378.612, 15.835 379.972 C 16.940 381.332, 17.672 382.721, 17.463 383.060 C 17.254 383.398, 18.864 385.414, 21.041 387.540 C 23.219 389.666, 25 391.079, 25 390.680 C 25 390.281, 26.121 390.688, 27.491 391.586 C 28.862 392.484, 29.728 393.631, 29.417 394.134 C 29.106 394.638, 29.222 394.985, 29.676 394.906 C 31.806 394.536, 33.052 395.106, 32.405 396.155 C 31.992 396.821, 32.127 397.039, 32.724 396.671 C 34.091 395.826, 40.182 398.897, 39.459 400.067 C 39.149 400.568, 39.668 400.681, 40.612 400.319 C 41.708 399.898, 42.088 400.049, 41.663 400.737 C 41.232 401.434, 41.759 401.614, 43.155 401.249 C 44.623 400.865, 45.086 401.051, 44.604 401.831 C 44.131 402.598, 44.464 402.759, 45.612 402.319 C 46.868 401.836, 47.109 402.015, 46.510 402.985 C 45.993 403.820, 46.080 404.069, 46.743 403.659 C 48.060 402.845, 54.123 403.992, 53.535 404.943 C 53.297 405.328, 69.381 405.759, 89.276 405.901 C 109.171 406.043, 125.798 406.375, 126.225 406.639 C 126.651 406.902, 127 406.589, 127 405.942 C 127 405.232, 127.976 404.953, 129.470 405.239 C 130.828 405.499, 131.702 405.326, 131.411 404.856 C 130.892 404.017, 133.725 403.529, 137.308 403.840 C 138.454 403.940, 138.852 403.569, 138.394 402.829 C 137.909 402.044, 138.218 401.870, 139.336 402.299 C 140.251 402.650, 141 402.475, 141 401.910 C 141 401.344, 141.450 401.160, 142 401.500 C 142.550 401.840, 143 401.615, 143 401 C 143 400.385, 143.520 400.203, 144.155 400.595 C 144.873 401.039, 145.037 400.870, 144.590 400.146 C 143.804 398.874, 147.878 396.865, 149.405 397.772 C 149.902 398.067, 149.988 397.789, 149.595 397.155 C 149.203 396.520, 149.359 395.944, 149.941 395.875 C 150.523 395.806, 151.450 395.694, 152 395.625 C 152.550 395.556, 152.887 395.187, 152.750 394.806 C 152.372 393.754, 159.142 387.070, 160.353 387.299 C 161.321 387.483, 161.505 387.079, 161.875 383.941 C 161.944 383.359, 162.461 383.167, 163.025 383.515 C 163.588 383.864, 163.942 383.778, 163.810 383.324 C 163.394 381.893, 167.220 373.018, 168.035 373.522 C 168.463 373.786, 168.578 373.102, 168.290 372.001 C 168.002 370.901, 168.227 370, 168.790 370 C 169.352 370, 169.577 369.100, 169.290 368 C 169.002 366.900, 169.157 366, 169.633 366 C 170.114 366, 170.390 344.489, 170.254 317.750 C 170.085 284.526, 170.328 269.967, 171.035 271 C 171.793 272.108, 171.884 271.742, 171.385 269.601 C 170.969 267.818, 171.082 266.933, 171.678 267.301 C 172.212 267.631, 172.615 266.910, 172.574 265.700 C 172.532 264.445, 173.037 263.607, 173.750 263.750 C 174.438 263.888, 174.888 263.438, 174.750 262.750 C 174.613 262.063, 175.096 261.624, 175.824 261.775 C 176.553 261.926, 176.909 261.662, 176.616 261.187 C 176.323 260.713, 177.976 258.564, 180.290 256.413 L 184.497 252.500 180.999 256.500 L 177.500 260.500 181.211 257.092 C 183.252 255.217, 184.706 253.333, 184.441 252.905 C 183.848 251.945, 191.902 245.394, 193.207 245.775 C 193.725 245.926, 193.883 245.619, 193.558 245.093 C 192.848 243.944, 196.959 240.857, 198.188 241.616 C 198.662 241.909, 198.926 241.553, 198.775 240.824 C 198.623 240.092, 199.277 239.561, 200.239 239.637 C 201.196 239.712, 201.702 239.327, 201.364 238.780 C 200.981 238.160, 201.598 238.055, 203 238.500 C 204.533 238.987, 205.032 238.861, 204.566 238.107 C 204.114 237.376, 205.109 237, 207.500 237 C 209.490 237, 210.900 237.353, 210.634 237.784 C 210.367 238.215, 211.353 238.552, 212.825 238.534 C 214.694 238.510, 215.400 238.952, 215.167 240 C 214.983 240.825, 215.155 241.178, 215.548 240.785 C 216.472 239.862, 220.486 242.660, 220.545 244.269 C 220.570 244.946, 221.087 245.403, 221.693 245.284 C 223.276 244.974, 232.121 252.995, 231.430 254.113 C 231.112 254.628, 231.260 254.926, 231.760 254.775 C 233.191 254.342, 241.555 262.238, 243.357 265.724 C 244.253 267.456, 244.688 269.651, 244.323 270.601 C 243.865 271.794, 244.031 272.099, 244.858 271.588 C 245.784 271.015, 245.993 281.749, 245.778 318.829 C 245.625 345.218, 245.824 366.609, 246.221 366.364 C 247.007 365.877, 248.125 369.557, 248.355 373.390 C 248.435 374.720, 248.838 375.600, 249.250 375.345 C 249.662 375.090, 250 375.406, 250 376.046 C 250 376.686, 251.405 379.292, 253.122 381.837 C 254.840 384.381, 256.327 387.024, 256.428 387.710 C 256.647 389.201, 261.003 393.996, 261.883 393.714 C 263.093 393.325, 266.974 396.695, 266.244 397.500 C 265.835 397.951, 265.950 398.076, 266.500 397.778 C 267.992 396.968, 272.225 398.828, 271.512 399.980 C 271.143 400.577, 271.585 400.713, 272.612 400.319 C 273.692 399.904, 274.086 400.052, 273.675 400.717 C 273.316 401.299, 273.579 401.754, 274.261 401.730 C 277.394 401.617, 279.071 402.076, 278.558 402.907 C 278.249 403.405, 278.968 403.560, 280.155 403.249 C 281.538 402.888, 282.076 403.067, 281.655 403.749 C 281.234 404.431, 281.772 404.611, 283.155 404.249 C 284.392 403.926, 285.063 404.090, 284.727 404.633 C 284.384 405.188, 285.669 405.434, 287.820 405.226 C 289.897 405.026, 290.997 405.226, 290.345 405.685 C 289.709 406.133, 304.334 406.500, 322.845 406.500 C 341.355 406.500, 356.754 406.158, 357.065 405.741 C 357.375 405.323, 359.467 404.873, 361.713 404.741 C 363.959 404.608, 365.547 404.092, 365.242 403.592 C 364.937 403.093, 365.658 402.939, 366.844 403.249 C 368.030 403.559, 369 403.357, 369 402.799 C 369 402.242, 369.698 402.054, 370.552 402.382 C 371.406 402.709, 371.859 402.580, 371.559 402.095 C 371.036 401.249, 375.623 399.471, 377.324 399.861 C 377.778 399.965, 377.816 399.512, 377.410 398.855 C 376.902 398.033, 377.207 397.866, 378.388 398.319 C 379.544 398.762, 379.870 398.599, 379.388 397.819 C 378.905 397.038, 379.231 396.875, 380.388 397.319 C 381.334 397.682, 381.850 397.566, 381.537 397.061 C 381.058 396.285, 383.957 394.712, 386.167 394.549 C 386.533 394.522, 387.208 394.090, 387.667 393.590 C 388.157 393.054, 387.883 392.987, 387 393.426 C 386.175 393.837, 386.612 393.270, 387.972 392.165 C 389.332 391.060, 390.743 390.341, 391.109 390.567 C 391.474 390.793, 392.329 390.308, 393.009 389.489 C 393.689 388.670, 393.881 388, 393.435 388 C 392.990 388, 393.904 386.666, 395.466 385.036 C 397.028 383.405, 398.698 382.314, 399.178 382.610 C 399.657 382.906, 399.943 382.778, 399.812 382.324 C 399.389 380.854, 402.071 376.926, 403.075 377.546 C 403.611 377.878, 403.985 377.778, 403.906 377.324 C 403.536 375.194, 404.106 373.948, 405.155 374.595 C 405.789 374.988, 406.041 374.875, 405.713 374.345 C 404.968 373.139, 410.552 361.885, 411.450 362.783 C 411.811 363.144, 411.809 362.665, 411.446 361.720 C 411.083 360.774, 411.242 360, 411.799 360 C 412.357 360, 412.559 359.030, 412.249 357.844 C 411.903 356.522, 412.077 355.930, 412.698 356.313 C 413.326 356.701, 413.521 355.943, 413.211 354.321 C 412.875 352.565, 413.075 351.928, 413.817 352.387 C 414.623 352.885, 414.920 331.430, 414.909 273.510 C 414.897 216.284, 414.586 194.138, 413.801 194.623 C 413.078 195.070, 412.879 194.414, 413.211 192.679 C 413.521 191.057, 413.326 190.299, 412.698 190.687 C 412.077 191.070, 411.903 190.477, 412.249 189.155 C 412.611 187.772, 412.431 187.234, 411.749 187.655 C 411.067 188.076, 410.888 187.538, 411.249 186.155 C 411.614 184.759, 411.434 184.232, 410.737 184.663 C 410.049 185.088, 409.898 184.708, 410.319 183.612 C 410.710 182.593, 410.576 182.144, 409.989 182.507 C 409.051 183.087, 408.832 182.653, 408.600 179.750 C 408.545 179.063, 407.701 177.616, 406.725 176.535 C 405.749 175.454, 405.182 173.969, 405.464 173.233 C 405.746 172.498, 405.532 172.171, 404.989 172.507 C 404.082 173.067, 403.556 171.692, 403.906 169.676 C 403.985 169.222, 403.627 169.113, 403.110 169.432 C 402.594 169.751, 401.247 168.518, 400.118 166.690 C 398.988 164.863, 397.161 162.550, 396.056 161.551 C 394.951 160.551, 394.295 159.332, 394.598 158.842 C 394.901 158.351, 394.738 158.074, 394.237 158.225 C 393.017 158.593, 372.890 139.987, 373.478 139.036 C 373.731 138.626, 372.715 137.213, 371.219 135.895 L 368.500 133.500 370.969 136.500 C 372.326 138.150, 367.939 134.107, 361.219 127.516 C 349.718 116.235, 346.696 112.948, 350.750 116.128 C 352.341 117.376, 352.374 117.339, 351.107 115.726 C 350.342 114.750, 349.473 114.194, 349.177 114.490 C 348.299 115.367, 343.015 109.784, 343.690 108.692 C 344.030 108.142, 343.868 107.964, 343.329 108.297 C 342.200 108.995, 318.758 87.201, 319.444 86.090 C 319.694 85.686, 315.984 81.563, 311.199 76.928 L 302.500 68.500 310.997 77.500 C 318.339 85.276, 317.898 84.939, 307.747 75.016 C 296.668 64.185, 292.088 59.091, 299.250 65.563 L 302.500 68.500 299.597 65.286 C 298 63.518, 296.386 62.261, 296.009 62.494 C 294.946 63.152, 287.861 55.472, 288.730 54.604 C 289.153 54.180, 289.023 53.983, 288.440 54.167 C 287.176 54.564, 261.877 31.007, 262.495 30.008 C 262.730 29.628, 261.252 27.783, 259.211 25.908 L 255.500 22.500 258.999 26.500 L 262.497 30.500 258.300 26.597 C 255.991 24.450, 254.192 22.221, 254.301 21.642 C 254.410 21.064, 254.013 20.570, 253.417 20.545 C 252.301 20.499, 245.005 14.459, 245.322 13.844 C 245.420 13.655, 245.328 13.597, 245.119 13.715 C 244.162 14.253, 241.010 11.792, 241.546 10.925 C 241.878 10.389, 241.778 10.051, 241.324 10.173 C 239.737 10.602, 235.976 8.847, 236.537 7.939 C 236.849 7.435, 236.464 7.269, 235.681 7.569 C 234.898 7.869, 233.633 7.490, 232.870 6.727 C 232.107 5.964, 230.861 5.546, 230.102 5.799 C 229.273 6.076, 228.998 5.813, 229.413 5.141 C 229.853 4.429, 229.540 4.239, 228.552 4.618 C 227.698 4.946, 227 4.730, 227 4.138 C 227 3.547, 226.325 3.322, 225.500 3.638 C 224.675 3.955, 224 3.794, 224 3.280 C 224 2.767, 222.586 2.554, 220.858 2.808 C 219.130 3.061, 217.962 2.871, 218.263 2.384 C 218.563 1.898, 216.715 1.637, 214.155 1.804 C 210.704 2.030, 209.888 1.840, 211 1.070 C 212.197 0.241, 211.932 0.028, 209.691 0.015 C 207.908 0.006, 207.129 0.400, 207.559 1.095 M 200.754 45.009 C 198.694 46.128, 187.922 55.921, 176.817 66.772 C 165.711 77.622, 151.993 90.944, 146.331 96.376 C 140.670 101.807, 136.287 106.656, 136.593 107.151 C 136.899 107.645, 136.553 107.926, 135.824 107.775 C 135.096 107.624, 134.624 108.096, 134.775 108.824 C 134.926 109.553, 134.657 109.906, 134.178 109.610 C 132.968 108.862, 127.794 114.443, 128.736 115.480 C 129.156 115.942, 129.021 116.049, 128.436 115.716 C 127.851 115.384, 116.376 126.194, 102.936 139.739 C 89.496 153.283, 79.400 163.720, 80.500 162.932 C 82.342 161.613, 82.392 161.637, 81.137 163.239 C 80.387 164.195, 79.465 164.788, 79.089 164.555 C 78.104 163.946, 77.663 164.347, 65.155 177.214 C 58.851 183.700, 54.108 189.366, 54.480 189.967 C 54.850 190.566, 54.556 190.927, 53.824 190.775 C 53.092 190.623, 52.561 191.277, 52.637 192.239 C 52.715 193.228, 52.318 193.697, 51.717 193.325 C 51.052 192.914, 50.904 193.308, 51.319 194.388 C 51.681 195.332, 51.569 195.851, 51.069 195.543 C 49.949 194.850, 47.617 201.571, 48.488 202.980 C 48.834 203.541, 48.641 204, 48.059 204 C 47.324 204, 47 225.121, 47 273.059 C 47 323.299, 47.302 341.932, 48.107 341.434 C 48.848 340.976, 48.996 341.436, 48.556 342.825 C 47.645 345.695, 50.009 349.832, 55.401 354.802 C 59.549 358.625, 61.071 359.462, 63.250 359.118 C 63.663 359.053, 64 359.498, 64 360.107 C 64 360.716, 64.698 360.946, 65.552 360.618 C 66.557 360.233, 66.855 360.426, 66.396 361.168 C 65.893 361.981, 66.615 362.127, 68.894 361.671 C 70.961 361.258, 71.876 361.392, 71.470 362.048 C 71.050 362.728, 78.004 363.031, 92.406 362.961 C 104.267 362.903, 114.217 362.458, 114.517 361.972 C 114.818 361.485, 115.725 361.341, 116.532 361.651 C 117.339 361.960, 118 361.689, 118 361.048 C 118 360.407, 118.404 360.132, 118.898 360.437 C 120.534 361.448, 126.277 355.168, 125.708 352.990 C 125.421 351.894, 125.566 351.232, 126.029 351.518 C 127.749 352.581, 128.100 342.445, 127.803 300.250 C 127.637 276.462, 127.762 256.999, 128.082 257 C 129.033 257, 130.967 249.755, 130.303 248.680 C 129.932 248.081, 130.213 248.014, 131.015 248.510 C 131.985 249.109, 132.164 248.868, 131.681 247.612 C 131.238 246.456, 131.401 246.130, 132.181 246.612 C 132.953 247.089, 133.128 246.777, 132.706 245.676 C 132.315 244.657, 132.537 244.115, 133.286 244.262 C 133.954 244.393, 134.541 243.825, 134.591 243 C 134.641 242.175, 139.462 236.732, 145.304 230.905 C 151.146 225.078, 155.632 220.803, 155.271 221.405 C 154.911 222.007, 155.373 221.887, 156.297 221.137 C 157.222 220.387, 157.688 219.305, 157.334 218.732 C 156.981 218.160, 157.104 217.946, 157.609 218.258 C 158.114 218.570, 161.245 216.277, 164.567 213.163 C 167.889 210.048, 169.683 208.175, 168.553 209 C 166.512 210.491, 166.511 210.487, 168.411 208.244 C 169.461 207.003, 170.536 206.202, 170.798 206.464 C 171.564 207.231, 176.986 202.995, 176.732 201.828 C 176.604 201.244, 177.187 200.648, 178.026 200.504 C 180.571 200.068, 186.042 196.375, 185.277 195.610 C 184.883 195.216, 185.409 195.220, 186.445 195.617 C 187.746 196.117, 188.107 195.982, 187.612 195.181 C 187.130 194.401, 187.456 194.238, 188.612 194.681 C 189.692 195.096, 190.086 194.948, 189.675 194.283 C 189.316 193.701, 189.579 193.246, 190.261 193.270 C 193.342 193.381, 195.075 192.931, 194.589 192.144 C 194.298 191.674, 195.239 191.514, 196.679 191.789 C 198.119 192.065, 199.045 191.883, 198.738 191.385 C 198.407 190.850, 202.329 190.758, 208.313 191.160 C 213.887 191.535, 218.867 191.582, 219.379 191.266 C 219.915 190.935, 219.966 191.247, 219.498 192.003 C 218.894 192.980, 219.238 193.171, 220.845 192.751 C 222.032 192.440, 222.751 192.595, 222.442 193.093 C 221.929 193.924, 223.606 194.383, 226.739 194.270 C 227.421 194.246, 227.783 194.542, 227.544 194.929 C 226.859 196.038, 232.872 199.197, 234.157 198.403 C 234.851 197.974, 235.038 198.130, 234.627 198.795 C 233.979 199.843, 237.360 202.389, 239.500 202.465 C 240.050 202.484, 240.500 203.105, 240.500 203.845 C 240.500 205.386, 246.030 210.099, 247.078 209.451 C 247.461 209.215, 248.387 209.805, 249.137 210.761 C 250.370 212.335, 250.334 212.370, 248.750 211.128 C 247.787 210.373, 247 209.946, 247 210.180 C 247 211.089, 265.343 226.485, 266.147 226.250 C 266.616 226.112, 266.888 226.367, 266.750 226.816 C 266.458 227.770, 275.948 237.500, 277.171 237.500 C 277.627 237.500, 277.981 237.849, 277.958 238.275 C 277.874 239.831, 281.391 244.876, 282.208 244.371 C 282.671 244.085, 282.965 244.222, 282.861 244.676 C 282.491 246.288, 284.227 250.978, 285.013 250.492 C 285.453 250.220, 285.560 250.968, 285.249 252.155 C 284.888 253.538, 285.067 254.076, 285.749 253.655 C 286.431 253.234, 286.611 253.772, 286.249 255.155 C 285.939 256.342, 286.093 257.061, 286.592 256.753 C 287.131 256.421, 287.500 275.370, 287.500 303.347 C 287.500 349.112, 287.560 350.603, 289.554 353.997 C 292.007 358.172, 297.761 362.296, 300.233 361.649 C 301.206 361.395, 301.751 361.595, 301.442 362.093 C 301.113 362.626, 310.629 363, 324.500 363 C 342.098 363, 347.936 362.706, 347.405 361.845 C 346.950 361.111, 347.132 360.963, 347.902 361.440 C 349.516 362.437, 354.244 361.203, 353.489 359.982 C 353.163 359.455, 353.500 359.255, 354.237 359.538 C 355.974 360.204, 364.222 353.168, 363.353 351.761 C 362.970 351.143, 363.160 350.981, 363.803 351.378 C 365.178 352.228, 368.363 346.396, 367.386 344.816 C 366.934 344.084, 367.146 343.972, 367.991 344.495 C 368.983 345.107, 369.137 344.683, 368.642 342.710 C 368.285 341.287, 368.444 339.843, 368.996 339.502 C 370.252 338.726, 370.393 207, 369.139 207 C 368.665 207, 368.492 205.875, 368.755 204.500 C 369.018 203.125, 368.773 202, 368.210 202 C 367.648 202, 367.441 201.030, 367.751 199.844 C 368.171 198.237, 367.980 197.894, 367.003 198.498 C 366.174 199.011, 365.933 198.918, 366.349 198.245 C 367.281 196.736, 366.001 193.881, 364.741 194.660 C 364.114 195.047, 363.989 194.826, 364.431 194.111 C 364.853 193.429, 363.990 191.318, 362.426 189.207 C 358.266 183.590, 290.724 117.053, 289.776 117.638 C 289.322 117.919, 289.074 117.756, 289.225 117.277 C 289.630 115.992, 284.226 109.856, 282.461 109.597 C 281.627 109.475, 281.070 109.077, 281.223 108.713 C 281.706 107.559, 266.693 93.071, 265.670 93.704 C 265.131 94.037, 264.967 93.863, 265.304 93.317 C 265.899 92.354, 259.512 85.377, 257.500 84.791 C 256.950 84.631, 256.595 84.216, 256.710 83.869 C 257.052 82.844, 240.958 67.474, 239.858 67.775 C 239.304 67.926, 239.094 67.657, 239.390 67.178 C 240.075 66.069, 234.059 59.845, 232.959 60.525 C 232.508 60.804, 231.813 60.506, 231.415 59.862 C 230.928 59.074, 231.151 58.948, 232.095 59.476 C 232.868 59.907, 230.575 57.302, 227 53.687 C 223.425 50.072, 219.827 46.976, 219.004 46.807 C 218.181 46.638, 217.011 45.868, 216.403 45.095 C 214.527 42.706, 205.088 42.654, 200.754 45.009 M 224.958 53.250 C 227.410 55.862, 229.548 58, 229.708 58 C 230.459 58, 229.665 57.102, 225.250 52.958 L 220.500 48.500 224.958 53.250 M 182 62.500 C 177.903 66.625, 174.775 70, 175.050 70 C 175.325 70, 178.903 66.625, 183 62.500 C 187.097 58.375, 190.225 55, 189.950 55 C 189.675 55, 186.097 58.375, 182 62.500 M 104.491 139.250 L 82.500 161.500 104.750 139.509 C 116.988 127.413, 127 117.401, 127 117.259 C 127 116.549, 124.926 118.576, 104.491 139.250 M 353 118.275 C 353 118.426, 356.488 121.914, 360.750 126.025 L 368.500 133.500 361.025 125.750 C 354.082 118.552, 353 117.544, 353 118.275 M 126.349 270 C 126.349 274.675, 126.522 276.587, 126.732 274.250 C 126.943 271.913, 126.943 268.087, 126.732 265.750 C 126.522 263.413, 126.349 265.325, 126.349 270 M 288.458 303.500 C 288.458 326.600, 288.589 335.907, 288.749 324.183 C 288.909 312.458, 288.909 293.558, 288.749 282.183 C 288.588 270.807, 288.457 280.400, 288.458 303.500 M 171.456 318 C 171.456 340.275, 171.588 349.387, 171.749 338.250 C 171.910 327.113, 171.910 308.888, 171.749 297.750 C 171.588 286.613, 171.456 295.725, 171.456 318 M 126.385 306 C 126.385 312.875, 126.545 315.688, 126.740 312.250 C 126.936 308.813, 126.936 303.188, 126.740 299.750 C 126.545 296.313, 126.385 299.125, 126.385 306 M 126.320 328 C 126.320 331.575, 126.502 333.038, 126.723 331.250 C 126.945 329.462, 126.945 326.538, 126.723 324.750 C 126.502 322.962, 126.320 324.425, 126.320 328 M 21 386.500 C 22.866 388.425, 24.617 390, 24.892 390 C 25.167 390, 23.866 388.425, 22 386.500 C 20.134 384.575, 18.383 383, 18.108 383 C 17.833 383, 19.134 384.575, 21 386.500 M 259 390.500 C 260.292 391.875, 261.574 393, 261.849 393 C 262.124 393, 261.292 391.875, 260 390.500 C 258.708 389.125, 257.426 388, 257.151 388 C 256.876 388, 257.708 389.125, 259 390.500" stroke="none" fill="#fb445c" fill-rule="evenodd"/></svg>