<svg xmlns="http://www.w3.org/2000/svg" width="707" height="468" viewBox="0 0 707 468" version="1.1"><path d="M 347.500 1.347 C 340.313 3.725, 335.177 6.904, 328.283 13.244 C 318.706 22.049, 288.463 50.573, 276 62.555 C 270.225 68.107, 260.775 77.056, 255 82.441 C 227.492 108.091, 221.179 116.707, 218.946 131.645 C 218.262 136.227, 218.002 156.320, 218.223 187.645 C 218.559 235.199, 218.628 236.680, 220.822 243.242 C 225.058 255.915, 235.785 266.978, 248.896 272.196 C 254.038 274.242, 256.498 274.456, 278.726 274.791 C 299.183 275.099, 303.849 274.895, 308.714 273.481 C 319.976 270.207, 328.421 263.401, 332.887 254 L 335.500 248.500 336 214.776 C 336.475 182.725, 336.599 180.954, 338.500 179.093 C 346.157 171.596, 357.789 162.010, 359.234 162.005 C 361.146 161.999, 381.440 179.084, 383.013 182.025 C 383.596 183.113, 384 195.495, 384 212.251 C 384 240.708, 384.770 249.667, 387.718 255.480 C 391.157 262.264, 396.044 266.913, 403.731 270.714 L 411.388 274.500 435.506 274.826 C 462.023 275.185, 467.701 274.419, 477.447 269.166 C 488.424 263.250, 498.651 249.483, 500.970 237.500 C 501.787 233.277, 502.037 215.929, 501.815 178.922 L 501.500 126.345 497.187 117.643 C 492.384 107.953, 489.237 104.458, 464.500 81.346 C 456.250 73.637, 437.575 56.154, 423 42.494 C 388.695 10.342, 383.017 5.542, 376.128 2.869 C 369.145 0.161, 353.585 -0.667, 347.500 1.347 M 351.012 2.143 C 339.322 4.079, 340.217 3.349, 284.963 56.072 C 267.228 72.995, 255.780 83.834, 239.689 98.942 C 230.753 107.332, 224.187 117.003, 221.320 125.999 C 220.143 129.691, 219.904 139.973, 219.989 183.234 C 220.083 231.211, 220.255 236.462, 221.897 241.440 C 226.072 254.095, 234.211 263.612, 245.442 268.972 C 253.889 273.004, 254.826 273.136, 279 273.704 C 307.559 274.375, 314.033 272.806, 324.833 262.596 C 333.940 253.986, 334.906 248.884, 334.967 209.069 C 335.006 183.478, 335.184 180.453, 336.755 178.705 C 339.794 175.324, 356.428 161.373, 358.190 160.728 C 360.383 159.925, 365.376 163.346, 375.743 172.753 C 381.880 178.322, 384.224 181.161, 384.918 183.866 C 385.432 185.865, 385.852 200.582, 385.854 216.570 C 385.856 243.088, 386.032 246.141, 387.859 251.339 C 390.457 258.731, 394.515 263.728, 401.151 267.708 C 409.845 272.921, 415.997 274.001, 436.960 273.992 C 457.231 273.984, 465.372 273.055, 472.699 269.915 C 479.336 267.070, 487.543 260.522, 491.304 255.070 C 500.675 241.486, 501.007 239.046, 500.969 184.162 C 500.952 159.598, 500.507 136.125, 499.980 132 C 499.318 126.825, 497.893 122.205, 495.380 117.097 C 491.409 109.021, 487.210 104.507, 460.939 80.067 C 452.998 72.679, 442.675 62.979, 438 58.512 C 433.325 54.045, 422.750 44.167, 414.500 36.561 C 406.250 28.955, 397.025 20.429, 394 17.616 C 381.900 6.361, 377.546 3.776, 367.918 2.127 C 360.501 0.857, 358.765 0.859, 351.012 2.143 M 356 29.562 C 351.199 31.059, 351.025 31.215, 294.904 84.500 C 280.422 98.250, 265.301 112.592, 261.301 116.370 C 256.826 120.599, 253.052 125.239, 251.487 128.436 L 248.945 133.632 249.223 183.645 L 249.500 233.657 252.366 237.414 C 257.398 244.010, 261.864 245.193, 281.252 245.062 C 298.998 244.942, 301.320 244.537, 304.500 241.012 C 306.389 238.918, 306.528 237.007, 307 206.648 C 307.559 170.725, 307.290 172.134, 315.146 163.983 C 323.411 155.410, 345.289 136.777, 348.889 135.246 C 350.946 134.372, 355.728 133.666, 360 133.606 C 368.284 133.489, 373.642 135.464, 379.762 140.892 C 381.557 142.483, 388.400 148.557, 394.969 154.390 C 402.063 160.689, 408.047 166.925, 409.707 169.748 L 412.500 174.500 413 206.672 L 413.500 238.844 415.910 241.407 C 418.808 244.489, 420.747 244.845, 437.500 245.376 C 457.159 246, 463.981 243.835, 468.718 235.470 C 470.965 231.504, 470.967 231.453, 470.984 182.377 C 470.999 135.887, 470.896 133.020, 469.057 128.877 C 466.706 123.578, 444.832 101.981, 384.431 45.323 C 366.111 28.139, 364.113 27.031, 356 29.562 M 354.500 31.184 C 351.871 32.661, 345.734 38.145, 333.500 49.952 C 328 55.259, 311.595 70.829, 297.044 84.551 C 257.214 122.113, 253.796 125.656, 251.721 131.550 C 250.096 136.166, 249.967 140.722, 250.222 184.628 L 250.500 232.658 253.392 236.448 C 258.533 243.187, 262.441 244.175, 282.519 243.814 L 299.960 243.500 302.730 240.729 L 305.500 237.959 306 205.729 C 306.556 169.907, 306.408 170.716, 313.759 163.283 C 319.972 157, 340.897 138.683, 345.137 135.815 C 351.973 131.192, 365.839 130.755, 373.682 134.915 C 379.899 138.214, 407.120 163.025, 410.479 168.454 L 413.500 173.337 414 205.752 L 414.500 238.168 417.766 241.084 L 421.032 244 438.048 244 C 459.566 244, 463.594 242.632, 468.106 233.790 C 469.887 230.301, 469.999 227.223, 469.990 182.290 L 469.980 134.500 467.608 129.500 C 465.136 124.290, 456.070 115.050, 418.496 79.448 C 381.614 44.501, 368.421 32.296, 366.305 31.163 C 363.566 29.697, 357.127 29.709, 354.500 31.184 M 99.785 333.250 L 99.500 343.500 92.500 343.615 L 85.500 343.730 85.213 352.828 L 84.926 361.927 92.213 361.737 L 99.500 361.547 100 389.023 C 100.539 418.634, 100.775 420.035, 106.342 426.637 C 110.712 431.819, 117.131 434.222, 128.065 434.770 C 137.410 435.239, 147.999 433.429, 149.426 431.120 C 149.940 430.288, 147.421 414.088, 146.660 413.327 C 146.449 413.116, 145.061 413.407, 143.574 413.972 C 142.087 414.537, 138.224 415, 134.991 415 C 130.219 415, 128.583 414.546, 126.306 412.588 L 123.500 410.176 123.201 385.838 L 122.903 361.500 135.488 361.692 L 148.074 361.885 147.787 352.715 L 147.500 343.545 135.250 343.863 L 123 344.182 123 333.591 C 123 327.766, 122.590 323, 122.088 323 C 121.587 323, 121.328 323.788, 121.512 324.750 C 121.696 325.712, 121.881 330.663, 121.923 335.750 L 122 345 133.872 345 L 145.744 345 146.234 348.750 C 146.503 350.813, 146.631 354.075, 146.517 356 L 146.311 359.500 134.155 359.781 C 123.459 360.028, 121.994 360.268, 121.953 361.781 C 121.927 362.726, 121.839 373.682, 121.758 386.127 C 121.593 411.209, 121.833 412.311, 128.170 415.588 C 131.307 417.210, 140.332 417.211, 144.102 415.589 C 145.403 415.029, 145.919 415.974, 146.852 420.617 C 148.723 429.934, 148.526 430.787, 144.250 431.894 C 130.564 435.440, 116.662 433.534, 108.642 427.011 C 107.620 426.180, 105.595 423.250, 104.142 420.500 C 101.501 415.501, 101.500 415.494, 101.178 388.251 L 100.857 361.002 98.452 360.399 C 97.129 360.067, 94.011 359.957, 91.523 360.155 L 87 360.514 86.833 354.757 C 86.742 351.591, 86.629 348.212, 86.583 347.250 C 86.514 345.787, 87.647 345.418, 93.500 345 L 100.500 344.500 100.785 334.286 L 101.069 324.072 110.785 323.745 L 120.500 323.419 110.285 323.209 L 100.070 323 99.785 333.250 M 26.286 344.451 C 16.952 347.368, 8.403 354.397, 5.375 361.645 C 3.552 366.007, 3.632 373.183, 5.553 377.782 C 9.644 387.575, 19.501 392.957, 41.848 397.598 C 52.502 399.811, 56.394 402.301, 56.804 407.167 C 57.049 410.086, 56.597 411.172, 54.423 412.882 C 45.929 419.563, 28.369 417.123, 21.050 408.245 L 18.159 404.737 11.829 407.723 C 8.348 409.365, 4.442 411.580, 3.150 412.645 L 0.799 414.581 4.198 419.037 C 8.571 424.771, 16.369 430.193, 23.704 432.599 C 28.167 434.063, 32.374 434.495, 42 434.480 C 52.785 434.463, 55.314 434.135, 60.430 432.091 C 68.097 429.028, 77.345 420.220, 78.901 414.500 C 81.431 405.199, 79.674 396.772, 73.901 390.509 C 69.095 385.295, 63.419 382.752, 49.295 379.488 C 30.742 375.200, 27 373.269, 27 367.981 C 27 364.865, 29.146 362.738, 33.899 361.142 C 41.599 358.556, 50.603 360.695, 56.729 366.565 L 61.281 370.926 69.640 367.296 C 74.238 365.299, 78 363.274, 78 362.797 C 78 361.522, 75.009 356.913, 72.068 353.657 C 68.977 350.234, 61.332 346.189, 54.500 344.361 C 48.177 342.670, 31.819 342.722, 26.286 344.451 M 184 344.823 C 173.278 348.399, 166.354 353.426, 162.944 360.110 L 161.006 363.909 168.893 367.886 L 176.780 371.863 179.140 369.336 C 187.765 360.102, 203.306 358.338, 211.952 365.613 C 213.547 366.956, 215.147 369.392, 215.506 371.027 C 215.865 372.662, 216.579 374, 217.093 374 C 218.430 374, 215.301 366.950, 212.767 364.252 C 210.026 361.335, 204.031 359.709, 196.734 359.906 C 189.409 360.104, 186.844 361.107, 180.858 366.119 L 176.016 370.173 172.640 368.086 C 170.783 366.939, 168.599 366, 167.787 366 C 166.975 366, 165.493 365.098, 164.496 363.995 C 162.727 362.040, 162.780 361.871, 166.629 357.245 C 172.284 350.447, 180.957 346.341, 192.556 344.970 C 215.659 342.239, 232.385 351.121, 236.868 368.500 C 238.176 373.568, 238.889 388.173, 239.042 413 L 239.161 432.500 230.407 432.479 L 221.652 432.457 220.222 428.166 C 218.365 422.596, 217.639 423.312, 219.304 429.072 L 220.584 433.500 230.542 433.783 L 240.500 434.066 240.247 405.783 C 240.107 390.227, 239.503 374.815, 238.904 371.533 C 236.676 359.331, 229.269 350.179, 218.147 345.887 C 210.112 342.787, 191.815 342.216, 184 344.823 M 371.695 344.036 C 355.993 347.979, 345.345 358.686, 340.480 375.422 C 338.097 383.619, 338.816 399.283, 341.945 407.344 C 346.461 418.976, 357.617 429.257, 369.808 433.023 C 383.083 437.123, 401.456 434.882, 411.934 427.885 C 417.507 424.164, 424 417.857, 424 416.166 C 424 415.441, 410.581 407, 409.428 407 C 409.128 407, 407.222 408.330, 405.191 409.955 C 399.738 414.320, 394.860 415.994, 387.248 416.109 C 379.571 416.226, 374.094 414.389, 369.624 410.197 C 366.387 407.161, 363.055 400.635, 363.022 397.264 L 363 395.028 394.750 394.764 L 426.500 394.500 426.827 387.500 C 427.470 373.708, 422.737 361.616, 413.329 353.018 C 405.815 346.150, 399.163 343.810, 386 343.404 C 380.225 343.226, 373.788 343.511, 371.695 344.036 M 467.500 344.365 C 459.757 346.399, 455.906 348.376, 450.716 352.983 C 446.531 356.698, 442.238 362.663, 443.176 363.461 C 443.354 363.613, 447.002 365.644, 451.281 367.976 L 459.063 372.215 463.899 367.691 C 471.002 361.047, 478.927 359.393, 488.320 362.593 C 493.712 364.431, 496.634 367.931, 498.534 374.828 C 499.802 379.430, 499.822 379.447, 499.894 376 C 500.082 366.974, 491.370 359.800, 480.220 359.800 C 473.099 359.800, 467.672 361.955, 462.772 366.730 C 459.237 370.175, 458.902 370.291, 456.272 368.991 C 451.174 366.471, 445.004 362.508, 445.002 361.753 C 445.001 361.342, 446.685 359.141, 448.744 356.861 C 456.810 347.933, 465.095 344.929, 481.629 344.936 C 496.876 344.943, 504.828 347.815, 512.659 356.141 C 519.355 363.260, 519.575 364.757, 520.360 408.500 C 520.567 420.050, 520.909 430.163, 521.119 430.973 C 521.420 432.137, 520.453 432.416, 516.500 432.304 C 513.750 432.227, 509.896 432.127, 507.935 432.082 C 504.679 432.007, 504.203 431.605, 502.435 427.437 L 500.500 422.874 496.223 426.043 C 484.002 435.100, 466.072 436.281, 453.120 428.884 C 440.875 421.890, 436.592 406.376, 443.578 394.323 C 444.909 392.026, 447.201 389.200, 448.672 388.044 C 452.081 385.362, 459.624 381.994, 463.500 381.422 C 472.173 380.144, 487.241 379.171, 492.040 379.579 C 495.905 379.908, 497.062 379.750, 496 379.037 C 494.042 377.723, 480.642 377.725, 470.155 379.040 C 458.538 380.496, 451.560 383.345, 446.008 388.897 C 440.368 394.537, 438.503 400.214, 439.246 409.479 C 440.499 425.082, 453.314 435, 472.222 435 C 481.371 435, 488.271 433.028, 495.024 428.484 C 497.871 426.568, 500.345 425, 500.521 425 C 500.697 425, 501.154 426.462, 501.536 428.250 C 502.688 433.637, 503.440 434, 513.452 434 L 522.659 434 522.329 418 C 521.412 373.432, 521.255 370.580, 519.404 365 C 516.883 357.401, 508.681 349.169, 500.493 346.022 C 493.090 343.176, 475.407 342.288, 467.500 344.365 M 557.734 344.030 C 551.831 345.512, 546.856 348.465, 542.338 353.167 C 530.021 365.988, 533.426 382.545, 550.132 391.067 C 552.374 392.211, 560.349 394.706, 567.854 396.612 C 584.425 400.820, 586.500 402.093, 586.500 408.052 C 586.500 411.824, 586.106 412.618, 583.466 414.160 C 578.684 416.953, 570.313 417.522, 563.413 415.524 C 558.889 414.214, 556.474 412.743, 553.131 409.264 L 548.761 404.716 540.788 408.603 C 536.403 410.741, 532.613 412.817, 532.366 413.216 C 530.845 415.677, 540.532 426.190, 547.681 429.837 C 555.850 434.005, 562.660 435.266, 574.417 434.789 C 591.524 434.096, 601.896 429.030, 607.703 418.532 C 611.648 411.400, 611.694 401.531, 607.813 394.930 C 603.078 386.876, 594.905 382.681, 575.642 378.421 C 564.374 375.929, 558.526 373.232, 557.521 370.065 C 556.563 367.048, 558.980 363.313, 563.090 361.459 C 568.109 359.196, 576.703 360.104, 582.866 363.548 C 588.933 366.940, 589.341 365.872, 583.329 362.338 C 579.089 359.846, 577.503 359.500, 570.331 359.500 C 563.076 359.500, 561.874 359.770, 559.598 361.908 C 556.242 365.061, 555.551 367.502, 557.015 371.036 C 558.610 374.887, 563.933 377.302, 577.500 380.329 C 594.874 384.205, 602.775 388.718, 607.129 397.253 C 610.133 403.142, 609.352 414, 605.505 419.813 C 596.520 433.390, 568.844 438.040, 550 429.138 C 543.866 426.240, 533.547 416.902, 534.195 414.835 C 534.425 414.101, 537.697 411.866, 541.467 409.869 L 548.320 406.237 552.410 410.534 C 557.797 416.193, 564.511 418.447, 573.967 417.770 C 585.067 416.976, 590.824 412.037, 588.443 405.352 C 586.903 401.028, 583.249 399.204, 568.508 395.403 C 553.225 391.461, 548.947 389.648, 543.371 384.752 C 535.888 378.182, 534.201 369.548, 538.632 360.498 C 544.802 347.899, 558.829 342.518, 579.321 344.890 C 589.160 346.029, 598.484 350.411, 603.475 356.242 C 605.432 358.528, 606.883 360.872, 606.699 361.450 C 606.363 362.505, 603.066 364.363, 595.333 367.856 C 591.532 369.573, 591.028 369.599, 589.583 368.155 C 588.712 367.284, 588 367.063, 588 367.663 C 588 368.264, 588.688 369.326, 589.528 370.023 C 590.794 371.074, 592.515 370.641, 599.557 367.504 C 604.232 365.420, 608.312 363.304, 608.624 362.800 C 609.546 361.307, 604.276 354.213, 599.876 351.025 C 592.450 345.646, 585.742 343.742, 573 343.396 C 566.675 343.225, 559.806 343.510, 557.734 344.030 M 650.754 344.084 C 648.694 344.570, 644.382 346.293, 641.173 347.913 C 626.649 355.244, 618 370.893, 618 389.839 C 618 416.517, 636.937 435, 664.271 435 C 679.927 435, 690.144 430.992, 699.012 421.371 C 703.882 416.088, 703.717 415.667, 694.625 410.162 L 689.111 406.823 684.481 410.359 C 678.012 415.299, 674.235 416.304, 663.984 415.814 C 656.192 415.441, 654.772 415.068, 651.353 412.492 C 645.526 408.103, 642.263 402.746, 642.076 397.264 L 642 395.028 673.750 394.764 L 705.500 394.500 705.793 387.890 C 705.953 384.254, 705.405 378.018, 704.574 374.031 C 701.349 358.564, 691.798 348.428, 676.650 344.395 C 670.961 342.880, 656.593 342.708, 650.754 344.084 M 33.500 344.607 C 26.850 345.558, 21.272 347.487, 17 350.313 C 3.181 359.457, 1.084 373.566, 11.973 384.131 C 17.153 389.157, 23.115 391.840, 35.161 394.567 C 53.635 398.750, 58 401.078, 58 406.753 C 58 414.910, 51.445 418.612, 38.477 417.780 C 30.614 417.276, 24.534 414.544, 20.257 409.595 C 19.023 408.168, 17.547 407, 16.978 407 C 15.400 407, 4.236 412.810, 3.487 414.021 C 2.582 415.486, 7.365 421.527, 12.208 425.036 C 17.107 428.584, 25.505 431.820, 33.487 433.236 C 40.768 434.527, 54.623 432.948, 61.361 430.060 C 67.507 427.425, 73.924 421.394, 76.318 416 C 78.796 410.421, 78.876 401.648, 76.495 396.630 C 72.694 388.622, 64.978 384.295, 47.500 380.372 C 33.582 377.248, 30.471 376.130, 27.812 373.299 C 25.176 370.494, 25.030 365.729, 27.497 363.003 C 30.571 359.606, 38.146 357.910, 44.771 359.135 C 51.662 360.409, 54.583 361.857, 58.437 365.911 C 60.052 367.610, 61.720 369, 62.142 369 C 64.388 369, 76 362.537, 76 361.287 C 76 360.484, 73.638 357.502, 70.750 354.662 C 66.820 350.795, 63.866 348.935, 59 347.262 C 52.634 345.073, 39.677 343.723, 33.500 344.607 M 247.936 358.221 C 253.274 371.355, 266.694 403.482, 275.401 423.970 C 277.380 428.628, 278.996 432.903, 278.990 433.470 C 278.985 434.036, 277.894 436.833, 276.566 439.685 C 273.534 446.197, 269.865 448.304, 261.870 448.123 L 256.129 447.993 256.702 457.247 C 257.017 462.336, 257.468 466.718, 257.704 466.984 C 257.941 467.250, 261.367 467.628, 265.317 467.823 C 278.558 468.476, 287.738 463.203, 293.732 451.500 C 296.010 447.051, 303.950 428.096, 320.541 387.500 C 323.463 380.350, 328.586 368.028, 331.927 360.119 C 335.267 352.209, 338 345.333, 338 344.839 C 338 344.340, 332.367 344.065, 325.338 344.220 L 312.676 344.500 307.812 357.500 C 298.865 381.414, 290.951 404.284, 291.450 404.783 C 291.966 405.299, 293.287 402.273, 295.503 395.500 C 296.223 393.300, 297.732 389.025, 298.857 386 C 299.982 382.975, 303.793 372.625, 307.327 363 L 313.751 345.500 324.876 345.282 C 330.994 345.161, 336 345.421, 336 345.859 C 336 346.297, 334.154 350.895, 331.897 356.078 C 329.641 361.260, 324.667 373.150, 320.844 382.500 C 307.970 413.988, 297.848 438.449, 294.297 446.656 C 290.203 456.117, 284.738 462.129, 278.109 464.464 C 273.853 465.963, 260.474 466.807, 259.316 465.650 C 259.002 465.335, 258.689 461.595, 258.622 457.337 L 258.500 449.597 263.321 449.878 C 267.022 450.094, 268.956 449.618, 271.642 447.830 C 275.497 445.263, 280 437.527, 280 433.473 C 280 431.226, 274.865 418.088, 266.525 399 C 264.102 393.452, 257.612 377.919, 250.023 359.500 C 247.757 354, 245.471 348.712, 244.943 347.750 C 243.857 345.770, 243.024 345.906, 256.884 345.804 C 261.771 345.768, 266.204 346.008, 266.736 346.337 C 267.268 346.666, 268.416 348.862, 269.287 351.217 C 270.158 353.573, 274.779 366.075, 279.555 379 C 287.310 399.987, 290.076 406.481, 289.966 403.450 C 289.947 402.928, 285.077 389.450, 279.143 373.500 L 268.356 344.500 255.244 344.221 L 242.133 343.943 247.936 358.221 M 376 344.963 C 359.579 347.502, 347.213 358.066, 342.382 373.681 C 340.156 380.877, 339.927 395.498, 341.931 402.500 C 346.952 420.047, 361.755 431.848, 380.986 433.635 C 394.710 434.911, 407.966 430.568, 417.109 421.802 L 422.353 416.775 419.926 414.882 C 418.592 413.841, 415.620 412.029, 413.322 410.854 L 409.144 408.718 405.297 411.765 C 394.169 420.578, 376.928 419.774, 367.138 409.984 C 363.949 406.795, 360.652 398.072, 361.651 395.467 C 362.129 394.222, 366.874 394, 393.072 394 C 422.557 394, 423.976 393.914, 424.965 392.066 C 426.754 388.723, 426.121 379.706, 423.571 372.208 C 417.935 355.639, 407.734 347.157, 390.902 345.047 C 386.310 344.471, 382.091 344.060, 381.526 344.134 C 380.962 344.207, 378.475 344.580, 376 344.963 M 653.233 345.050 C 641.646 347.115, 629.301 356.551, 624.083 367.329 C 621.585 372.489, 619.042 383.720, 619.017 389.701 C 618.973 400.447, 624.361 414.002, 631.423 420.913 C 648.578 437.701, 681.723 437.958, 696.965 421.422 C 701.054 416.986, 701.128 416.788, 699.343 415.050 C 698.329 414.063, 697.201 413.426, 696.835 413.634 C 696.470 413.842, 696.020 413.614, 695.835 413.127 C 695.651 412.640, 694.019 411.349, 692.210 410.257 L 688.919 408.273 685.993 411.007 C 684.383 412.511, 681.364 414.549, 679.283 415.536 C 674.635 417.743, 662.905 418.602, 657.478 417.134 C 648.691 414.757, 641.144 406.067, 640.683 397.797 L 640.500 394.500 672.121 394.236 L 703.743 393.972 704.303 390.521 C 705.131 385.415, 704.084 376.303, 701.887 369.500 C 698.207 358.106, 689.815 349.806, 678.607 346.476 C 672.181 344.568, 659.833 343.873, 653.233 345.050 M 375.323 360.638 C 369.986 362.529, 363.348 369.628, 362.452 374.403 C 361.228 380.927, 360.913 380.821, 381.485 380.810 C 391.724 380.804, 401.316 380.434, 402.801 379.986 C 404.403 379.503, 396.864 379.137, 384.250 379.086 C 363.625 379.003, 363 378.941, 363 376.980 C 363 374.591, 366.786 368.398, 370.130 365.317 C 373.526 362.188, 377.322 360.997, 383.815 361.022 C 393.566 361.060, 400.264 365.588, 403.674 374.450 C 404.691 377.093, 404.858 377.197, 404.924 375.229 C 405.019 372.392, 400.882 366.028, 397.150 363.269 C 391.423 359.035, 382.785 357.994, 375.323 360.638 M 654.730 360.327 C 649.365 361.996, 643.439 368.161, 641.453 374.141 C 640.542 376.885, 640.075 379.408, 640.415 379.748 C 640.755 380.089, 649.239 380.333, 659.267 380.291 C 687.083 380.175, 685 380.404, 685 377.460 C 685 374.216, 681.432 367.040, 678.647 364.684 C 672.410 359.407, 663.123 357.715, 654.730 360.327 M 653.500 362.357 C 649.222 364.326, 645.132 368.440, 643.449 372.467 C 640.601 379.284, 639.753 379, 663 379 C 679.594 379, 684 378.726, 684 377.696 C 684 374.583, 678.782 366.329, 675.340 364 C 672.338 361.968, 670.229 361.451, 664.073 361.238 C 659.227 361.071, 655.420 361.473, 653.500 362.357 M 184 379.474 C 163.540 383, 152.853 396.713, 157.022 414.091 C 158.401 419.839, 164.795 427.809, 170.321 430.666 C 181.823 436.614, 198.475 436.408, 210.682 430.167 C 212.982 428.991, 215.182 427.514, 215.571 426.885 C 215.960 426.255, 215.878 425.933, 215.389 426.168 C 214.900 426.403, 211.939 427.832, 208.810 429.344 C 193.429 436.772, 174.394 434.474, 164.605 424.009 C 155.615 414.397, 155.475 398.651, 164.304 389.936 C 168.168 386.121, 176.094 382.124, 182.147 380.939 C 185.091 380.362, 194.025 379.851, 202 379.803 C 212.020 379.744, 215.573 379.447, 213.500 378.843 C 209.545 377.691, 192.196 378.062, 184 379.474 M 193.500 393.681 C 180.883 396.515, 175.584 403.107, 179.423 411.197 C 182.488 417.655, 190.312 419.915, 201 417.430 C 211.813 414.916, 216.718 410.431, 218.424 401.500 C 218.739 399.850, 218.601 397.885, 218.118 397.134 C 217.529 396.220, 217.221 397.103, 217.183 399.811 C 217.077 407.533, 212.369 412.881, 203.269 415.620 C 197.866 417.246, 190.216 417.413, 186.464 415.986 C 182.331 414.415, 180.071 411.025, 180.033 406.339 C 180.006 402.929, 180.537 401.726, 182.975 399.675 C 187.604 395.779, 192.525 394.617, 204.650 394.556 C 210.782 394.525, 215.593 394.163, 215.341 393.750 C 214.859 392.963, 196.949 392.906, 193.500 393.681 M 472.722 394.477 C 466.178 396.299, 463.097 398.523, 461.360 402.681 C 458.841 408.709, 461.552 414.629, 468 417.182 C 471.847 418.706, 481.330 418.383, 486.878 416.540 C 492.226 414.764, 498.482 408.912, 499.540 404.695 C 499.866 403.400, 499.989 400.351, 499.816 397.920 L 499.500 393.500 488.500 393.324 C 481.859 393.217, 475.606 393.674, 472.722 394.477 M 475.326 395.044 C 466.444 396.801, 462 400.803, 462 407.048 C 462 412.958, 467.842 417, 476.384 417 C 489.352 417, 499 409.130, 499 398.552 C 499 395.956, 498.510 395.102, 496.750 394.630 C 493.624 393.792, 480.361 394.049, 475.326 395.044" stroke="none" fill="#fb121e" fill-rule="evenodd"/><path d="M 351.500 2.117 C 348.750 2.664, 345.307 3.198, 343.848 3.305 C 342.390 3.412, 341.451 3.914, 341.762 4.420 C 342.074 4.926, 341.585 5.055, 340.676 4.706 C 339.767 4.357, 339.131 4.475, 339.262 4.967 C 339.393 5.459, 337.934 7.030, 336.020 8.458 C 334.105 9.885, 326.829 16.441, 319.851 23.027 C 306.208 35.900, 301.821 38.919, 311.531 28.750 L 317.499 22.500 310.750 28.971 C 304.308 35.147, 302.799 36.860, 305 35.500 C 307.480 33.967, 305.409 36.352, 297.935 43.638 C 289.134 52.217, 285.105 54.870, 291.500 47.875 L 295.500 43.500 291.291 47.413 C 288.977 49.564, 287.333 51.730, 287.639 52.225 C 287.945 52.719, 286.434 54.784, 284.283 56.812 C 282.131 58.840, 273.371 67.138, 264.815 75.250 C 248.840 90.399, 242.931 94.850, 253.531 83.750 L 259.500 77.500 253.297 83.422 C 249.886 86.679, 247.312 89.696, 247.578 90.126 C 247.844 90.556, 244.868 93.967, 240.964 97.704 C 233.563 104.790, 228.776 110.723, 224.989 117.499 C 219.893 126.619, 219.878 126.813, 219.989 183.234 C 220.083 231.211, 220.255 236.462, 221.897 241.440 C 226.072 254.095, 234.211 263.612, 245.442 268.972 C 253.889 273.004, 254.826 273.136, 279 273.704 C 307.559 274.375, 314.033 272.806, 324.833 262.596 C 333.954 253.973, 334.921 248.836, 334.927 208.996 L 334.932 180.500 342.716 173.264 C 350.460 166.064, 354.549 163.504, 349.924 168.750 L 347.500 171.500 350.219 169.105 C 351.715 167.787, 352.741 166.390, 352.500 166 C 351.968 165.139, 355.847 161.528, 358.190 160.703 C 360.385 159.931, 365.431 163.395, 375.743 172.753 C 381.880 178.322, 384.224 181.161, 384.918 183.866 C 385.432 185.865, 385.852 200.582, 385.854 216.570 C 385.856 243.088, 386.032 246.141, 387.859 251.339 C 390.457 258.731, 394.515 263.728, 401.151 267.708 C 409.845 272.921, 415.997 274.001, 436.960 273.992 C 457.231 273.984, 465.372 273.055, 472.699 269.915 C 479.245 267.109, 487.532 260.541, 491.138 255.299 C 492.781 252.912, 494.524 251.206, 495.012 251.507 C 495.500 251.809, 496.397 251.031, 497.005 249.778 C 498.064 247.596, 498.045 247.582, 496.555 249.441 C 494.436 252.086, 494.427 249.262, 496.545 246.239 C 500.265 240.928, 501.001 230.598, 500.969 184.162 C 500.952 159.598, 500.507 136.125, 499.980 132 C 499.315 126.798, 497.891 122.203, 495.334 117.002 C 492.152 110.533, 489.686 107.596, 477.362 95.593 C 469.506 87.942, 463.355 81.234, 463.694 80.687 C 464.039 80.128, 463.805 80.003, 463.161 80.401 C 462.061 81.080, 458.426 77.926, 438.250 58.783 C 430.630 51.553, 427.566 47.919, 431.750 51.075 C 432.712 51.801, 431.267 50.056, 428.538 47.197 C 425.808 44.339, 423.362 42, 423.101 42 C 422.839 42, 423.919 43.350, 425.500 45 C 427.081 46.650, 428.011 48, 427.566 48 C 427.122 48, 420.828 42.488, 413.580 35.750 C 406.332 29.013, 397.814 21.130, 394.652 18.233 C 391.490 15.336, 389.139 12.584, 389.428 12.117 C 389.717 11.650, 388.951 10.420, 387.726 9.384 L 385.500 7.500 387.405 9.750 C 390.056 12.881, 388.492 12.558, 384.080 9.063 C 382.041 7.448, 379.178 5.582, 377.717 4.917 C 376.257 4.252, 375.231 3.436, 375.436 3.104 C 375.641 2.772, 374.389 2.467, 372.655 2.427 C 370.920 2.387, 366.575 2.078, 363 1.739 C 359.425 1.400, 354.250 1.571, 351.500 2.117 M 325.453 15.250 L 321.500 19.500 325.750 15.547 C 328.087 13.373, 330 11.460, 330 11.297 C 330 10.540, 329.129 11.298, 325.453 15.250 M 358.235 28.720 C 356.990 28.953, 356.203 29.519, 356.487 29.978 C 356.770 30.438, 356.159 30.593, 355.129 30.323 C 352.883 29.736, 349.249 32.837, 324.500 56.458 C 314.600 65.907, 297.963 81.707, 287.530 91.569 C 277.096 101.431, 265.303 112.580, 261.322 116.344 C 257.042 120.393, 253.046 125.273, 251.542 128.291 L 249 133.393 249 182.295 C 249 225.296, 249.195 231.610, 250.619 234.610 C 252.708 239.013, 257.778 243.291, 260.166 242.667 C 261.176 242.403, 261.780 242.547, 261.507 242.988 C 260.461 244.681, 265.071 245.164, 281.252 245.058 C 298.997 244.942, 301.320 244.538, 304.500 241.012 C 306.389 238.918, 306.528 237.007, 307 206.648 C 307.547 171.494, 307.265 173.144, 314.121 164.891 C 316.227 162.357, 317.733 160.066, 317.469 159.802 C 317.204 159.537, 318.003 158.461, 319.244 157.411 L 321.500 155.500 319.595 157.750 C 318.547 158.988, 318.126 160, 318.658 160 C 319.931 160, 325.175 154.509, 324.524 153.858 C 324.247 153.581, 325.479 152.037, 327.260 150.427 L 330.500 147.500 327.563 150.750 C 325.948 152.537, 324.972 154, 325.396 154 C 326.723 154, 342.972 138.763, 342.485 137.975 C 342.230 137.563, 342.805 136.613, 343.761 135.863 C 345.335 134.630, 345.370 134.666, 344.128 136.250 C 342.396 138.458, 342.714 138.440, 347.359 136.072 C 355.990 131.671, 369.010 132.719, 376.478 138.416 C 380.651 141.599, 381.939 141.745, 379.412 138.750 C 377.703 136.724, 377.787 136.741, 380.257 138.924 C 382.995 141.345, 383.892 142.669, 382 141.500 C 379.672 140.061, 381.297 142.275, 385.121 145.753 C 390.194 150.366, 392.375 151.285, 389 147.387 L 386.500 144.500 389.219 146.895 C 390.715 148.213, 391.736 149.619, 391.488 150.020 C 391.240 150.421, 394.634 153.996, 399.030 157.966 C 403.426 161.935, 408.255 167.279, 409.761 169.841 L 412.500 174.500 413 206.672 L 413.500 238.844 415.910 241.407 C 418.808 244.489, 420.747 244.845, 437.500 245.376 C 457.159 246, 463.981 243.835, 468.718 235.470 C 470.965 231.504, 470.967 231.457, 470.984 182.284 C 470.998 138.172, 470.824 132.675, 469.307 129.284 C 467.627 125.532, 441.435 98, 439.545 98 C 439.005 98, 441.248 100.813, 444.531 104.250 L 450.499 110.500 443.777 104.056 C 440.080 100.512, 437.280 97.386, 437.556 97.110 C 438.205 96.461, 424.866 83, 423.574 83 C 423.035 83, 424.373 84.912, 426.547 87.250 L 430.500 91.500 426.291 87.587 C 423.977 85.436, 422.276 83.363, 422.511 82.982 C 423.463 81.442, 369.654 30.624, 365.931 29.545 C 362.047 28.420, 360.645 28.270, 358.235 28.720 M 372.500 37 C 375.209 39.750, 377.650 42, 377.925 42 C 378.200 42, 376.209 39.750, 373.500 37 C 370.791 34.250, 368.350 32, 368.075 32 C 367.800 32, 369.791 34.250, 372.500 37 M 339.462 44.250 L 334.500 49.500 339.750 44.538 C 342.637 41.808, 345 39.446, 345 39.288 C 345 38.541, 344.074 39.372, 339.462 44.250 M 442.500 61 C 445.209 63.750, 447.650 66, 447.925 66 C 448.200 66, 446.209 63.750, 443.500 61 C 440.791 58.250, 438.350 56, 438.075 56 C 437.800 56, 439.791 58.250, 442.500 61 M 318 64.500 C 315.571 66.975, 313.809 69, 314.084 69 C 314.359 69, 316.571 66.975, 319 64.500 C 321.429 62.025, 323.191 60, 322.916 60 C 322.641 60, 320.429 62.025, 318 64.500 M 403.500 66 C 406.766 69.300, 409.662 72, 409.937 72 C 410.212 72, 407.766 69.300, 404.500 66 C 401.234 62.700, 398.338 60, 398.063 60 C 397.788 60, 400.234 62.700, 403.500 66 M 269.971 67.750 L 263.500 74.500 270.250 68.029 C 273.962 64.470, 277 61.432, 277 61.279 C 277 60.543, 275.982 61.480, 269.971 67.750 M 300 81.500 C 297.571 83.975, 295.809 86, 296.084 86 C 296.359 86, 298.571 83.975, 301 81.500 C 303.429 79.025, 305.191 77, 304.916 77 C 304.641 77, 302.429 79.025, 300 81.500 M 474.500 91 C 477.209 93.750, 479.650 96, 479.925 96 C 480.200 96, 478.209 93.750, 475.500 91 C 472.791 88.250, 470.350 86, 470.075 86 C 469.800 86, 471.791 88.250, 474.500 91 M 283 97.500 C 280.571 99.975, 278.809 102, 279.084 102 C 279.359 102, 281.571 99.975, 284 97.500 C 286.429 95.025, 288.191 93, 287.916 93 C 287.641 93, 285.429 95.025, 283 97.500 M 260 119.500 C 257.571 121.975, 255.809 124, 256.084 124 C 256.359 124, 258.571 121.975, 261 119.500 C 263.429 117.025, 265.191 115, 264.916 115 C 264.641 115, 262.429 117.025, 260 119.500 M 502.462 183 C 502.462 209.125, 502.591 219.813, 502.749 206.750 C 502.907 193.688, 502.907 172.313, 502.749 159.250 C 502.591 146.188, 502.462 156.875, 502.462 183 M 250.458 183.500 C 250.458 206.600, 250.589 215.907, 250.749 204.183 C 250.909 192.458, 250.909 173.558, 250.749 162.183 C 250.588 150.807, 250.457 160.400, 250.458 183.500 M 414.442 208 C 414.442 224.225, 414.580 230.862, 414.748 222.750 C 414.916 214.637, 414.916 201.362, 414.748 193.250 C 414.580 185.137, 414.442 191.775, 414.442 208 M 305.441 208 C 305.441 223.675, 305.579 230.087, 305.748 222.250 C 305.917 214.412, 305.917 201.587, 305.748 193.750 C 305.579 185.912, 305.441 192.325, 305.441 208 M 99.667 322.667 C 99.300 323.033, 99 327.737, 99 333.119 L 99 342.905 93.250 343.274 L 87.500 343.643 93.500 343.571 L 99.500 343.500 99.785 333.250 L 100.070 323 110.285 323.209 L 120.500 323.419 110.785 323.745 L 101.069 324.072 100.785 334.286 L 100.500 344.500 93.500 345 L 86.500 345.500 86.845 353 C 87.035 357.125, 87.663 360.950, 88.242 361.500 C 88.958 362.181, 89.068 362.101, 88.588 361.250 C 88.061 360.318, 89.231 360.004, 93.191 360.015 C 96.111 360.024, 99.029 360.367, 99.675 360.778 C 100.515 361.312, 100.944 369.239, 101.175 388.513 C 101.500 415.470, 101.503 415.506, 104.142 420.500 C 105.595 423.250, 107.620 426.180, 108.642 427.011 C 116.662 433.534, 130.564 435.440, 144.250 431.894 C 148.526 430.787, 148.723 429.934, 146.852 420.617 C 145.919 415.974, 145.403 415.029, 144.102 415.589 C 140.332 417.211, 131.307 417.210, 128.170 415.588 C 121.833 412.311, 121.593 411.209, 121.758 386.127 C 121.839 373.682, 121.927 362.726, 121.953 361.781 C 121.994 360.268, 123.459 360.028, 134.155 359.781 L 146.311 359.500 146.517 356 C 146.631 354.075, 146.503 350.813, 146.234 348.750 L 145.744 345 133.872 345 L 122 345 121.875 335.500 C 121.806 330.275, 121.679 325.438, 121.592 324.750 C 121.504 324.063, 121.898 323.169, 122.467 322.765 C 123.035 322.361, 118.287 322.024, 111.917 322.015 C 105.546 322.007, 100.033 322.300, 99.667 322.667 M 37.768 342.725 C 39.565 342.947, 42.265 342.943, 43.768 342.715 C 45.271 342.486, 43.800 342.304, 40.500 342.310 C 37.200 342.315, 35.971 342.502, 37.768 342.725 M 196.750 342.723 C 198.537 342.945, 201.463 342.945, 203.250 342.723 C 205.037 342.502, 203.575 342.320, 200 342.320 C 196.425 342.320, 194.963 342.502, 196.750 342.723 M 381.264 342.718 C 382.784 342.947, 385.034 342.941, 386.264 342.704 C 387.494 342.467, 386.250 342.279, 383.500 342.286 C 380.750 342.294, 379.744 342.488, 381.264 342.718 M 479.264 342.718 C 480.784 342.947, 483.034 342.941, 484.264 342.704 C 485.494 342.467, 484.250 342.279, 481.500 342.286 C 478.750 342.294, 477.744 342.488, 479.264 342.718 M 568.250 342.716 C 569.763 342.945, 572.237 342.945, 573.750 342.716 C 575.263 342.487, 574.025 342.300, 571 342.300 C 567.975 342.300, 566.737 342.487, 568.250 342.716 M 660.250 342.716 C 661.763 342.945, 664.237 342.945, 665.750 342.716 C 667.263 342.487, 666.025 342.300, 663 342.300 C 659.975 342.300, 658.737 342.487, 660.250 342.716 M 128.287 343.740 C 131.469 343.939, 136.419 343.937, 139.287 343.736 C 142.154 343.535, 139.550 343.372, 133.500 343.374 C 127.450 343.376, 125.104 343.541, 128.287 343.740 M 325.768 343.725 C 327.565 343.947, 330.265 343.943, 331.768 343.715 C 333.271 343.486, 331.800 343.304, 328.500 343.310 C 325.200 343.315, 323.971 343.502, 325.768 343.725 M 31 345.167 C 27.975 345.736, 24.305 346.269, 22.845 346.351 C 21.386 346.433, 20.366 346.783, 20.579 347.128 C 20.962 347.748, 13.646 353, 12.399 353 C 12.045 353, 12.356 352.212, 13.089 351.250 C 13.823 350.288, 12.940 350.850, 11.126 352.500 C 7.771 355.552, 4.744 359.894, 6.900 358.562 C 8.332 357.677, 8.292 358.057, 6.500 362.346 C 3.340 369.908, 5.283 377.640, 11.973 384.131 C 17.164 389.167, 23.166 391.863, 35.161 394.548 C 46.998 397.197, 53.518 399.421, 53.262 400.721 C 53.130 401.391, 53.652 401.687, 54.435 401.386 C 57.156 400.342, 59.592 409.898, 57.011 411.493 C 56.432 411.851, 56.264 411.359, 56.606 410.302 C 57.046 408.940, 56.951 408.833, 56.217 409.861 C 55.682 410.609, 55.453 412.016, 55.707 412.988 C 56.768 417.045, 39.158 419.574, 30.748 416.573 C 26.359 415.007, 20 410.393, 20 408.775 C 20 408.157, 21.237 408.731, 22.750 410.050 L 25.500 412.448 23.314 410.066 C 20.324 406.808, 16.615 406.655, 10.895 409.553 C 5.415 412.330, 4.584 412.518, 5.601 410.750 C 6.019 410.024, 5.939 409.849, 5.410 410.333 C 4.910 410.792, 4.493 411.467, 4.485 411.833 C 4.476 412.200, 4.100 413.082, 3.649 413.793 C 2.578 415.481, 6.955 421.230, 12.208 425.036 C 17.107 428.584, 25.505 431.820, 33.487 433.236 C 40.768 434.527, 54.623 432.948, 61.361 430.060 C 67.507 427.425, 73.924 421.394, 76.318 416 C 78.796 410.421, 78.876 401.648, 76.495 396.630 C 72.694 388.622, 64.978 384.295, 47.500 380.372 C 33.582 377.248, 30.471 376.130, 27.812 373.299 C 25.176 370.494, 25.030 365.729, 27.497 363.003 C 30.571 359.606, 38.146 357.910, 44.771 359.135 C 51.662 360.409, 54.583 361.857, 58.437 365.911 C 60.052 367.610, 61.720 369, 62.142 369 C 62.565 369, 65.886 367.578, 69.524 365.841 C 75.640 362.920, 76.089 362.487, 75.503 360.091 C 74.884 357.566, 74.909 357.551, 76.489 359.500 C 78.072 361.453, 78.084 361.446, 77.005 359.222 C 76.397 357.969, 75.521 357.178, 75.059 357.464 C 74.075 358.072, 65.473 349.892, 65.817 348.676 C 65.945 348.222, 65.583 348.140, 65.012 348.493 C 64.441 348.845, 61.564 348.232, 58.617 347.130 C 52.131 344.703, 38.586 343.740, 31 345.167 M 190.552 345.092 C 186.731 345.610, 181.171 347.149, 178.196 348.511 C 175.221 349.872, 172.374 350.731, 171.869 350.419 C 171.364 350.107, 171.074 350.226, 171.225 350.684 C 171.697 352.114, 163.714 360.941, 162.578 360.245 C 161.985 359.882, 162.213 360.666, 163.085 361.987 C 163.957 363.309, 165.307 364.675, 166.085 365.024 C 166.863 365.373, 169.455 366.674, 171.845 367.914 L 176.191 370.169 178.410 368.085 C 181.917 364.790, 182.682 365.659, 179.437 369.250 L 176.500 372.500 179.703 369.608 C 181.464 368.018, 182.814 366.290, 182.703 365.769 C 182.591 365.248, 183.708 363.896, 185.184 362.765 C 188.707 360.065, 198.815 359.011, 205.374 360.660 C 210.688 361.995, 215.363 365.613, 214.541 367.754 C 214.256 368.496, 214.424 368.856, 214.914 368.553 C 215.404 368.250, 216.276 369.352, 216.851 371.001 C 217.485 372.822, 217.524 374, 216.948 374 C 216.427 374, 216 375.302, 216 376.893 L 216 379.786 201.750 379.838 C 182.513 379.908, 176.192 381.268, 167.846 387.134 C 164.512 389.477, 163.352 389.526, 165.097 387.250 C 165.835 386.288, 165.216 386.591, 163.720 387.924 C 160.891 390.446, 159.871 392.182, 162.500 390 C 164.633 388.230, 164.356 389.731, 161.998 392.730 C 158.582 397.072, 157.115 403.805, 158.149 410.395 C 159.272 417.560, 160.742 420.449, 165.668 425.182 C 175.449 434.579, 194.219 436.390, 208.810 429.344 C 211.939 427.832, 214.900 426.403, 215.389 426.168 C 215.878 425.933, 215.956 426.361, 215.563 427.120 C 215.170 427.879, 215.744 427.485, 216.839 426.244 L 218.830 423.989 220.241 428.223 L 221.652 432.457 230.407 432.479 L 239.161 432.500 239.042 413 C 238.799 373.575, 237.763 365.778, 231.712 357.845 C 223.458 347.023, 209.104 342.576, 190.552 345.092 M 375.500 345.052 C 372.750 345.493, 368.973 346.324, 367.108 346.898 C 365.242 347.472, 363.318 347.697, 362.833 347.397 C 362.348 347.097, 362.074 347.282, 362.225 347.809 C 362.376 348.336, 360.253 350.324, 357.507 352.227 C 351.427 356.441, 344.813 365.823, 342.382 373.681 C 340.156 380.877, 339.927 395.498, 341.931 402.500 C 346.952 420.047, 361.755 431.848, 380.986 433.635 C 394.710 434.911, 407.966 430.568, 417.109 421.802 L 422.353 416.775 419.926 414.882 C 418.592 413.841, 415.620 412.029, 413.322 410.854 L 409.144 408.718 405.297 411.765 C 394.169 420.578, 376.928 419.774, 367.138 409.984 C 363.949 406.795, 360.652 398.072, 361.651 395.467 C 362.129 394.222, 366.874 394, 393.072 394 C 422.557 394, 423.976 393.914, 424.965 392.066 C 426.754 388.723, 426.121 379.706, 423.571 372.208 C 417.935 355.639, 407.734 347.157, 390.902 345.047 C 386.310 344.471, 382.091 344.056, 381.526 344.125 C 380.962 344.193, 378.250 344.611, 375.500 345.052 M 474 345.074 C 467.046 345.688, 460.725 347.441, 457.527 349.642 C 455.114 351.303, 453.631 351.406, 454.595 349.845 C 455.051 349.108, 454.868 348.963, 454.088 349.446 C 453.416 349.861, 453.117 350.451, 453.424 350.757 C 453.730 351.063, 451.960 353.474, 449.490 356.114 C 447.021 358.754, 445.001 361.271, 445.002 361.707 C 445.004 362.501, 451.058 366.414, 456.272 368.991 C 458.902 370.291, 459.237 370.175, 462.772 366.730 C 467.672 361.955, 473.099 359.800, 480.220 359.800 C 491.374 359.800, 500.098 366.988, 499.884 376 C 499.809 379.154, 499.727 379.253, 499.053 377 L 498.305 374.500 497.903 377 C 497.526 379.339, 497.147 379.489, 492 379.336 C 486.923 379.185, 470.548 380.383, 463.500 381.422 C 459.624 381.994, 452.081 385.362, 448.672 388.044 C 447.201 389.200, 444.909 392.026, 443.578 394.323 C 436.592 406.376, 440.875 421.890, 453.120 428.884 C 466.072 436.281, 484.002 435.100, 496.223 426.043 L 500.500 422.874 502.435 427.437 C 504.203 431.605, 504.679 432.007, 507.935 432.082 C 509.896 432.127, 513.750 432.227, 516.500 432.304 C 520.453 432.416, 521.420 432.137, 521.119 430.973 C 520.909 430.163, 520.567 420.050, 520.360 408.500 C 519.736 373.700, 519.371 367.804, 517.587 363.706 C 516.679 361.619, 516.248 359.369, 516.629 358.706 C 517.009 358.043, 516.938 357.848, 516.471 358.273 C 516.004 358.697, 513.794 357.265, 511.561 355.088 C 502.983 346.731, 491.102 343.563, 474 345.074 M 561 344.935 C 555.238 345.729, 548.280 348.752, 546.061 351.427 C 545.343 352.292, 544.290 353, 543.723 353 C 543.155 353, 543.538 351.988, 544.574 350.750 C 545.610 349.512, 544.779 350.051, 542.729 351.946 C 539.089 355.310, 537.989 356.743, 540 355.500 C 541.467 354.593, 541.266 355.306, 538.500 360.813 C 534.179 369.415, 535.979 378.263, 543.371 384.752 C 548.947 389.648, 553.225 391.461, 568.508 395.403 C 583.249 399.204, 586.903 401.028, 588.443 405.352 C 590.818 412.022, 585.065 416.976, 574.026 417.766 C 566.247 418.323, 555.525 415.681, 556.392 413.421 C 556.661 412.720, 556.120 411.551, 555.191 410.823 C 553.671 409.634, 553.639 409.677, 554.872 411.250 C 557.489 414.587, 554.156 413.013, 551.321 409.573 L 548.496 406.146 541.554 409.823 C 537.737 411.845, 534.425 414.101, 534.195 414.835 C 533.547 416.902, 543.866 426.240, 550 429.138 C 564.368 435.925, 586.716 434.867, 598.154 426.859 C 601.491 424.523, 602.640 424.478, 600.921 426.750 C 599.778 428.261, 599.795 428.322, 601.048 427.200 C 601.847 426.485, 602.503 425.585, 602.506 425.200 C 602.517 423.830, 607.183 416.995, 607.835 417.392 C 608.201 417.614, 608.644 414.061, 608.820 409.496 C 609.085 402.654, 608.777 400.484, 607.071 397.139 C 602.779 388.725, 594.797 384.188, 577.500 380.329 C 571.450 378.979, 564.635 376.986, 562.356 375.899 C 557.314 373.496, 555.102 369.267, 556.864 365.399 C 557.494 364.017, 558.468 363.171, 559.029 363.518 C 559.590 363.865, 559.926 363.590, 559.775 362.906 C 558.901 358.955, 573.414 357.643, 580.820 361.004 C 583.196 362.083, 584.894 363.363, 584.593 363.849 C 584.293 364.335, 584.937 365.538, 586.024 366.521 C 587.111 367.505, 588 367.945, 588 367.500 C 588 367.055, 588.816 367.429, 589.814 368.331 C 590.817 369.239, 592.046 369.602, 592.564 369.142 C 593.079 368.686, 596.070 367.297, 599.211 366.056 C 606.948 362.999, 607.752 361.865, 604.962 357.946 C 601.980 353.759, 595.914 349.484, 589.645 347.150 C 583.713 344.942, 569.130 343.814, 561 344.935 M 653.233 345.050 C 643.018 346.870, 630.548 355.501, 626.086 363.840 C 625.433 365.060, 624.403 365.749, 623.795 365.373 C 623.188 364.998, 622.963 365.131, 623.296 365.669 C 623.628 366.207, 623.022 369.469, 621.948 372.919 C 616.359 390.875, 620.103 409.835, 631.423 420.913 C 648.616 437.738, 681.722 437.959, 697.030 421.352 C 700.976 417.071, 701.176 416.602, 699.557 415.418 C 698.468 414.622, 698.101 413.632, 698.592 412.817 C 699.205 411.797, 699.003 411.809, 697.692 412.872 C 696.761 413.627, 696 413.823, 696 413.307 C 696 412.791, 694.200 411.357, 692 410.120 C 687.920 407.827, 686.589 406.249, 689.750 407.452 C 691.161 407.990, 691.256 407.873, 690.239 406.848 C 689.220 405.822, 688.547 406.040, 686.739 407.980 C 685.507 409.302, 685.288 409.792, 686.250 409.069 C 687.349 408.244, 688 408.155, 688 408.830 C 688 410.469, 679.962 415.640, 675.481 416.884 C 670.195 418.351, 660.370 418.223, 655.910 416.629 C 647.645 413.675, 641.118 405.602, 640.683 397.797 L 640.500 394.500 672.121 394.236 L 703.743 393.972 704.303 390.521 C 705.131 385.415, 704.084 376.303, 701.887 369.500 C 698.207 358.106, 689.815 349.806, 678.607 346.476 C 672.181 344.568, 659.833 343.873, 653.233 345.050 M 246.420 345.847 C 245.364 346.038, 244.050 346.666, 243.500 347.244 C 242.819 347.958, 242.901 348.067, 243.757 347.583 C 244.515 347.155, 245.261 347.594, 245.636 348.687 C 245.977 349.684, 248.031 354.775, 250.200 360 C 261.050 386.140, 264.321 393.954, 266.525 399 C 274.865 418.088, 280 431.226, 280 433.473 C 280 436.620, 275.403 446, 273.861 446 C 273.155 446, 273.251 445.367, 274.128 444.250 C 275.370 442.666, 275.335 442.630, 273.761 443.863 C 272.805 444.613, 272.256 445.606, 272.543 446.069 C 273.658 447.874, 268.117 450.158, 263.305 449.877 L 258.500 449.597 258.622 457.337 C 258.689 461.595, 259.002 465.335, 259.316 465.650 C 260.474 466.807, 273.853 465.963, 278.109 464.464 C 284.738 462.129, 290.203 456.117, 294.297 446.656 C 297.848 438.449, 307.970 413.988, 320.844 382.500 C 324.667 373.150, 329.641 361.260, 331.897 356.078 C 334.154 350.895, 336 346.297, 336 345.859 C 336 345.421, 330.994 345.161, 324.876 345.282 L 313.751 345.500 307.327 363 C 303.793 372.625, 299.990 382.975, 298.876 386 C 297.762 389.025, 295.946 394.200, 294.839 397.500 C 293.733 400.800, 292.350 403.950, 291.767 404.500 C 291.031 405.194, 290.911 404.921, 291.376 403.609 C 291.941 402.013, 291.810 401.913, 290.539 402.967 C 289.276 404.016, 288.856 403.756, 287.932 401.359 C 287.039 399.041, 278.538 376.176, 269.290 351.217 C 268.417 348.862, 267.274 346.669, 266.749 346.345 C 265.695 345.694, 249.467 345.296, 246.420 345.847 M 375.323 360.577 C 369.976 362.549, 363.338 369.680, 362.452 374.403 C 361.230 380.918, 361.047 380.851, 380.191 380.883 C 389.711 380.899, 399.091 380.684, 401.037 380.404 C 404.451 379.914, 404.572 379.751, 404.537 375.698 C 404.511 372.756, 404.104 371.582, 403.176 371.775 C 402.447 371.926, 402.138 371.585, 402.489 371.018 C 403.243 369.798, 399.350 364, 397.777 364 C 397.179 364, 397.547 365.012, 398.595 366.250 L 400.500 368.500 398.290 366.631 C 397.074 365.603, 396.174 364.283, 396.290 363.698 C 396.980 360.204, 382.270 358.015, 375.323 360.577 M 654.918 360.327 C 652.947 360.972, 650.135 362.465, 648.668 363.644 C 645.948 365.829, 644.984 367.703, 647.250 366.399 C 647.976 365.981, 648.151 366.061, 647.667 366.590 C 647.208 367.090, 646.308 367.500, 645.667 367.500 C 644.409 367.500, 641.519 372.866, 640.485 377.122 C 639.648 380.564, 640.386 380.682, 661 380.423 C 687.237 380.093, 685 380.369, 685 377.460 C 685 374.216, 681.432 367.040, 678.647 364.684 C 672.431 359.424, 662.975 357.688, 654.918 360.327 M 37.750 360.706 C 38.987 360.944, 41.013 360.944, 42.250 360.706 C 43.487 360.467, 42.475 360.272, 40 360.272 C 37.525 360.272, 36.513 360.467, 37.750 360.706 M 567.264 360.718 C 568.784 360.947, 571.034 360.941, 572.264 360.704 C 573.494 360.467, 572.250 360.279, 569.500 360.286 C 566.750 360.294, 565.744 360.488, 567.264 360.718 M 97.731 361.721 C 98.633 362.361, 99.042 369.005, 99.260 386.548 L 99.556 410.500 99.528 386.083 C 99.504 365.243, 99.280 361.606, 98 361.257 C 96.909 360.959, 96.836 361.086, 97.731 361.721 M 648.750 378.737 C 651.638 378.939, 656.362 378.939, 659.250 378.737 C 662.138 378.535, 659.775 378.370, 654 378.370 C 648.225 378.370, 645.862 378.535, 648.750 378.737 M 338.272 389 C 338.272 391.475, 338.467 392.488, 338.706 391.250 C 338.944 390.012, 338.944 387.988, 338.706 386.750 C 338.467 385.512, 338.272 386.525, 338.272 389 M 193.500 393.681 C 180.712 396.553, 175.578 403.094, 179.546 411.456 C 180.671 413.827, 181.774 414.917, 182.691 414.565 C 183.468 414.267, 183.843 414.445, 183.524 414.961 C 182.756 416.204, 185.582 417.580, 190.442 418.329 C 199.706 419.757, 216.928 412.658, 215.690 407.922 C 215.413 406.864, 215.563 406.230, 216.024 406.515 C 217.121 407.193, 217.601 406.257, 218.382 401.921 C 218.900 399.046, 218.575 397.816, 216.731 395.671 C 214.529 393.107, 214.056 393.005, 204.968 393.116 C 199.761 393.180, 194.600 393.434, 193.500 393.681 M 472.722 394.477 C 466.178 396.299, 463.097 398.523, 461.360 402.681 C 458.841 408.709, 461.552 414.629, 468 417.182 C 471.847 418.706, 481.330 418.383, 486.878 416.540 C 492.226 414.764, 498.482 408.912, 499.540 404.695 C 499.866 403.400, 499.989 400.351, 499.816 397.920 L 499.500 393.500 488.500 393.324 C 481.859 393.217, 475.606 393.674, 472.722 394.477 M 39.750 416.706 C 40.987 416.944, 43.013 416.944, 44.250 416.706 C 45.487 416.467, 44.475 416.272, 42 416.272 C 39.525 416.272, 38.513 416.467, 39.750 416.706 M 569.264 416.718 C 570.784 416.947, 573.034 416.941, 574.264 416.704 C 575.494 416.467, 574.250 416.279, 571.500 416.286 C 568.750 416.294, 567.744 416.488, 569.264 416.718 M 240.310 423.500 C 240.315 426.800, 240.502 428.029, 240.725 426.232 C 240.947 424.435, 240.943 421.735, 240.715 420.232 C 240.486 418.729, 240.304 420.200, 240.310 423.500 M 522.272 424 C 522.272 426.475, 522.467 427.488, 522.706 426.250 C 522.944 425.012, 522.944 422.988, 522.706 421.750 C 522.467 420.512, 522.272 421.525, 522.272 424 M 38.768 435.725 C 40.565 435.947, 43.265 435.943, 44.768 435.715 C 46.271 435.486, 44.800 435.304, 41.500 435.310 C 38.200 435.315, 36.971 435.502, 38.768 435.725 M 128.264 435.718 C 129.784 435.947, 132.034 435.941, 133.264 435.704 C 134.494 435.467, 133.250 435.279, 130.500 435.286 C 127.750 435.294, 126.744 435.488, 128.264 435.718 M 187.264 435.718 C 188.784 435.947, 191.034 435.941, 192.264 435.704 C 193.494 435.467, 192.250 435.279, 189.500 435.286 C 186.750 435.294, 185.744 435.488, 187.264 435.718 M 383.264 435.718 C 384.784 435.947, 387.034 435.941, 388.264 435.704 C 389.494 435.467, 388.250 435.279, 385.500 435.286 C 382.750 435.294, 381.744 435.488, 383.264 435.718 M 469.768 435.725 C 471.565 435.947, 474.265 435.943, 475.768 435.715 C 477.271 435.486, 475.800 435.304, 472.500 435.310 C 469.200 435.315, 467.971 435.502, 469.768 435.725 M 568.768 435.725 C 570.565 435.947, 573.265 435.943, 574.768 435.715 C 576.271 435.486, 574.800 435.304, 571.500 435.310 C 568.200 435.315, 566.971 435.502, 568.768 435.725 M 662.750 435.723 C 664.538 435.945, 667.462 435.945, 669.250 435.723 C 671.038 435.502, 669.575 435.320, 666 435.320 C 662.425 435.320, 660.962 435.502, 662.750 435.723 M 256.272 457 C 256.272 459.475, 256.467 460.488, 256.706 459.250 C 256.944 458.012, 256.944 455.988, 256.706 454.750 C 256.467 453.512, 256.272 454.525, 256.272 457" stroke="none" fill="#fb3254" fill-rule="evenodd"/></svg>